<?xml version="1.0" encoding="UTF-8" standalone="no"?>
<!DOCTYPE svg PUBLIC "-//W3C//DTD SVG 1.1//EN" "http://www.w3.org/Graphics/SVG/1.1/DTD/svg11.dtd">
<svg width="100%" height="100%" viewBox="0 0 854 162" version="1.1" xmlns="http://www.w3.org/2000/svg" xmlns:xlink="http://www.w3.org/1999/xlink" xml:space="preserve" xmlns:serif="http://www.serif.com/" style="fill-rule:evenodd;clip-rule:evenodd;stroke-linejoin:round;stroke-miterlimit:2;">
    <g transform="matrix(1.25,0,0,-1.25,-236.862,594.591)">
        <g id="g10">
            <g id="GLogo" transform="matrix(1.69627,0,0,1.69627,-132.4,-329.774)">
                <path id="path4288" d="M218.359,428.337L209.296,428.337L201.796,447.869L198.39,444.462L198.39,428.337L189.89,428.337L189.89,474.025L198.39,474.025L198.39,451.369L201.359,458.212L209.14,474.025L218.234,474.025L207.671,454.244L218.359,428.337Z" style="fill:white;fill-rule:nonzero;"/>
                <rect id="path4290" x="223.921" y="428.337" width="8" height="45.688" style="fill:white;fill-rule:nonzero;"/>
                <path id="path4292" d="M273.64,428.337L263.265,428.337L249.14,461.431L248.734,461.431C249.254,458.91 249.515,456.202 249.515,453.306L249.515,428.337L241.64,428.337L241.64,474.025L252.077,474.025L266.077,441.275L266.421,441.275C266.025,443.462 265.827,446.066 265.827,449.087L265.827,474.025L273.64,474.025L273.64,428.337Z" style="fill:white;fill-rule:nonzero;"/>
                <path id="path4294"
                      d="M310.827,451.619C310.827,444.077 309.286,438.306 306.202,434.306C303.14,430.327 298.723,428.337 292.952,428.337L281.765,428.337L281.765,474.025L293.984,474.025C299.296,474.025 303.432,472.056 306.39,468.119C309.348,464.202 310.827,458.702 310.827,451.619ZM302.109,451.369C302.109,461.577 299.296,466.681 293.671,466.681L290.265,466.681L290.265,435.775L293.015,435.775C296.119,435.775 298.411,437.066 299.89,439.65C301.369,442.254 302.109,446.16 302.109,451.369Z"
                      style="fill:white;fill-rule:nonzero;"/>
                <g id="text3356-3" transform="matrix(0.834025,0,0,-1.199,127.619,219.938)">
                    <path id="path4285"
                          d="M232.262,-204.349C232.262,-203.147 232.576,-201.997 233.203,-200.899C233.83,-199.819 234.902,-198.512 236.418,-196.978C238.665,-198.285 240.225,-199.487 241.096,-200.585C241.984,-201.7 242.429,-202.981 242.429,-204.427C242.429,-205.769 241.976,-206.858 241.07,-207.694C240.181,-208.548 238.988,-208.975 237.489,-208.975C235.938,-208.975 234.675,-208.557 233.699,-207.72C232.741,-206.884 232.262,-205.76 232.262,-204.349ZM236.313,-177.115C240.512,-177.115 243.997,-178.457 246.767,-181.14L235.346,-192.222C233.412,-191.037 232.044,-190.052 231.243,-189.268C230.441,-188.502 229.849,-187.674 229.465,-186.785C229.082,-185.897 228.89,-184.886 228.89,-183.754C228.89,-181.715 229.561,-180.095 230.903,-178.892C232.262,-177.708 234.065,-177.115 236.313,-177.115ZM224.395,-183.649C224.395,-185.914 224.996,-187.918 226.198,-189.66C227.418,-191.403 229.596,-193.163 232.732,-194.94C231.251,-196.595 230.241,-197.85 229.701,-198.703C229.178,-199.557 228.76,-200.446 228.446,-201.369C228.132,-202.293 227.976,-203.251 227.976,-204.244C227.976,-206.858 228.829,-208.896 230.537,-210.36C232.244,-211.824 234.623,-212.555 237.672,-212.555C240.495,-212.555 242.716,-211.824 244.337,-210.36C245.957,-208.914 246.767,-206.893 246.767,-204.297C246.767,-202.432 246.175,-200.707 244.99,-199.122C243.805,-197.553 241.845,-195.959 239.11,-194.339L249.747,-184.12C250.723,-185.2 251.498,-186.463 252.073,-187.909C252.665,-189.373 253.162,-190.967 253.563,-192.692L257.954,-192.692C256.769,-187.709 254.983,-183.928 252.596,-181.349L260.41,-173.744L254.425,-173.744L249.59,-178.396C247.534,-176.549 245.443,-175.225 243.317,-174.423C241.192,-173.622 238.822,-173.221 236.208,-173.221C232.462,-173.221 229.552,-174.144 227.479,-175.991C225.423,-177.838 224.395,-180.391 224.395,-183.649Z" style="fill:white;fill-rule:nonzero;"/>
                </g>
                <path id="path4276" d="M377.912,428.65L369.412,428.65L369.412,448.681L358.194,448.681L358.194,428.65L349.694,428.65L349.694,474.337L358.194,474.337L358.194,456.181L369.412,456.181L369.412,474.337L377.912,474.337L377.912,428.65Z" style="fill:white;fill-rule:nonzero;"/>
                <path id="path4278" d="M414.037,474.337L414.037,444.775C414.037,439.337 412.808,435.181 410.35,432.306C407.892,429.452 404.339,428.025 399.694,428.025C395.152,428.025 391.694,429.441 389.319,432.275C386.944,435.129 385.756,439.337 385.756,444.9L385.756,474.337L394.194,474.337L394.194,444.275C394.194,438.462 396.121,435.556 399.975,435.556C401.767,435.556 403.152,436.296 404.131,437.775C405.11,439.254 405.6,441.358 405.6,444.087L405.6,474.337L414.037,474.337Z"
                      style="fill:white;fill-rule:nonzero;"/>
                <path id="path4280" d="M453.944,428.65L443.569,428.65L429.444,461.744L429.037,461.744C429.558,459.223 429.819,456.514 429.819,453.619L429.819,428.65L421.944,428.65L421.944,474.337L432.381,474.337L446.381,441.587L446.725,441.587C446.329,443.775 446.131,446.379 446.131,449.4L446.131,474.337L453.944,474.337L453.944,428.65Z" style="fill:white;fill-rule:nonzero;"/>
                <path id="path4282"
                      d="M491.131,451.931C491.131,444.389 489.589,438.619 486.506,434.619C483.444,430.639 479.027,428.65 473.256,428.65L462.069,428.65L462.069,474.337L474.287,474.337C479.6,474.337 483.735,472.368 486.694,468.431C489.652,464.514 491.131,459.014 491.131,451.931ZM482.412,451.681C482.412,461.889 479.6,466.994 473.975,466.994L470.569,466.994L470.569,436.087L473.319,436.087C476.423,436.087 478.714,437.379 480.194,439.962C481.673,442.566 482.412,446.473 482.412,451.681Z"
                      style="fill:white;fill-rule:nonzero;"/>
            </g>
            <g id="GHandPfote" transform="matrix(0.8,0,0,-0.8,707.056,475.709)">
                <g id="GPfote" transform="matrix(1.25,0,0,-1.25,-541.597,594.591)">
                    <g id="GPfoteRand" transform="matrix(1.30648,0,0,-1.30648,-69.6932,475.673)">
                        <path d="M481.117,-0C464.211,-0 450.502,13.704 450.502,30.614C450.502,47.521 464.211,61.228 481.117,61.228C498.026,61.228 511.733,47.521 511.733,30.614C511.733,13.704 498.026,-0 481.117,-0ZM481.117,3.828C495.91,3.828 507.903,15.817 507.903,30.614C507.903,45.407 495.91,57.402 481.117,57.402C466.324,57.402 454.328,45.407 454.328,30.614C454.328,15.817 466.324,3.828 481.117,3.828Z" style="fill:rgb(101,99,99);fill-rule:nonzero;"/>
                    </g>
                    <g id="GPfoteNegativ" transform="matrix(1.30648,0,0,-1.30648,-69.6932,475.673)">
                        <path
                            d="M507.904,30.615C507.904,45.408 495.91,57.402 481.117,57.402C466.324,57.402 454.328,45.408 454.328,30.615C454.328,15.818 466.324,3.828 481.117,3.828C495.91,3.828 507.904,15.818 507.904,30.615ZM488.218,23.559C488.432,24.151 488.536,24.285 488.819,24.781C489.163,25.383 489.525,25.908 489.936,26.348C490.375,26.818 490.864,27.125 491.347,27.395C491.923,27.715 492.45,27.928 493.03,27.928C493.564,27.924 494.012,27.719 494.503,27.412C495.069,27.053 495.521,26.582 495.881,25.912C496.191,25.33 496.614,24.721 496.756,23.977C496.877,23.33 496.862,22.613 496.848,21.893C496.835,21.26 496.685,20.615 496.557,19.959C496.438,19.336 496.445,18.652 496.22,18.035C496.002,17.444 495.532,16.992 495.249,16.496C494.908,15.897 494.656,15.279 494.243,14.836C493.806,14.367 493.244,14.127 492.76,13.858C492.189,13.537 491.649,13.412 491.069,13.414C490.533,13.414 490.01,13.43 489.519,13.736C488.949,14.094 488.562,14.68 488.206,15.346C487.893,15.93 487.6,16.565 487.459,17.309C487.335,17.957 487.251,18.654 487.267,19.373C487.279,20.006 487.341,20.662 487.466,21.318C487.586,21.942 487.524,22.096 487.75,22.711L487.991,23.158C487.982,23.164 488.218,23.559 488.218,23.559ZM468.219,46.576C468.234,46.598 468.256,46.615 468.256,46.615C469.025,46.678 469.792,46.592 470.469,46.402C471.173,46.205 471.747,45.772 472.282,45.361C472.83,44.944 473.392,44.514 473.694,43.928C473.952,43.42 473.925,42.817 473.95,42.219C473.979,41.514 473.835,40.881 473.533,40.254C473.242,39.641 472.95,38.986 472.408,38.514C471.89,38.059 471.255,37.633 470.568,37.369C469.988,37.147 469.325,37.027 468.666,36.977C467.897,36.918 467.159,37.096 466.484,37.285C465.779,37.481 465.14,37.774 464.606,38.184C464.059,38.604 463.702,39.156 463.403,39.746C463.141,40.254 462.999,40.774 462.976,41.373C462.945,42.076 462.903,42.801 463.2,43.426C463.493,44.037 464.085,44.477 464.624,44.951C465.147,45.408 465.718,45.817 466.41,46.084C466.978,46.3 467.575,46.52 468.219,46.576ZM475.725,22.825C476.067,23.335 476.439,23.787 476.818,24.194C477.288,24.699 477.736,25.188 478.239,25.526C478.775,25.881 479.385,25.99 479.918,26.141C480.547,26.318 481.113,26.36 481.675,26.225C482.197,26.102 482.765,25.992 483.174,25.578C483.646,25.1 483.994,24.418 484.193,23.684C484.361,23.045 484.438,22.301 484.406,21.547C484.378,20.889 484.156,20.207 483.976,19.51C483.819,18.891 483.687,18.236 483.411,17.625C483.153,17.047 482.886,16.434 482.523,15.885C482.179,15.358 481.643,15 481.254,14.58C480.783,14.076 480.299,13.666 479.796,13.33C479.261,12.973 478.766,12.633 478.233,12.479C477.605,12.299 476.972,12.236 476.407,12.371C475.884,12.496 475.403,12.799 474.995,13.213C474.525,13.694 474.212,14.342 474.019,15.076C473.849,15.713 473.759,16.426 473.793,17.18C473.821,17.842 473.808,18.565 473.987,19.264C474.145,19.875 474.49,20.465 474.764,21.076C475.023,21.658 475.345,22.227 475.706,22.776L475.725,22.825ZM475.725,22.825C475.715,22.81 475.706,22.795 475.696,22.781L475.739,22.86L475.725,22.825ZM468.275,33.678C468.844,34.016 469.378,34.391 469.943,34.568C470.536,34.752 471.154,34.633 471.71,34.647C472.36,34.668 472.947,34.635 473.497,34.434C474.06,34.229 474.646,34.033 475.046,33.613C475.385,33.258 475.68,32.797 475.868,32.297C476.112,31.652 476.177,30.906 476.116,30.182C476.062,29.545 475.813,28.897 475.547,28.252C475.315,27.686 474.94,27.176 474.566,26.647C474.196,26.129 473.848,25.57 473.361,25.123C472.917,24.725 472.382,24.422 471.851,24.11C471.283,23.774 470.744,23.438 470.179,23.264C469.585,23.074 468.989,23.125 468.431,23.11C467.785,23.092 467.142,22.969 466.59,23.168C466.029,23.371 465.567,23.793 465.163,24.215C464.827,24.57 464.504,24.975 464.317,25.473C464.076,26.119 463.95,26.854 464.013,27.578C464.067,28.217 464.358,28.854 464.622,29.498C464.856,30.067 465.195,30.594 465.571,31.123C465.94,31.641 466.313,32.174 466.801,32.619C467.242,33.022 467.692,33.459 468.222,33.772L468.288,33.709C468.291,33.701 468.275,33.678 468.275,33.678ZM479.881,29.519C479.863,29.525 479.844,29.539 479.844,29.539C479.277,30.453 479.351,30.215 478.76,31.41C478.492,31.955 478.305,32.658 478,33.397C477.749,33.994 477.61,34.688 477.364,35.393C477.132,36.076 476.879,36.783 476.681,37.543C476.502,38.229 476.494,38.953 476.37,39.68C476.241,40.401 475.961,40.764 475.907,41.512C475.855,42.182 475.981,43.186 476.002,43.871C476.024,44.549 475.989,45.219 476.091,45.897C476.195,46.57 476.065,47.305 476.26,47.969C476.452,48.623 476.618,49.33 476.914,49.969C477.201,50.594 477.695,51.154 478.09,51.756C478.4,52.225 478.921,52.526 479.304,52.975C480.14,53.721 480.101,53.506 481.281,53.828C483.029,54.119 483.899,53.861 485.611,52.635C487.781,51.076 487.073,50.533 487.678,49.17C488.279,47.807 487.962,47.893 488.425,47.246C488.884,46.602 489.37,46.986 490.327,47.121C491.28,47.26 492.214,47.254 493.412,47.176C494.61,47.102 495.576,46.727 496.662,46.192L497.745,45.656C498.289,45.276 498.682,44.867 499.069,44.297C499.424,43.768 499.754,43.227 499.926,42.51C500.064,41.914 500.169,41.287 500.153,40.545C500.138,39.934 500.033,39.297 499.894,38.578C499.791,38.051 499.802,37.467 499.625,36.879C499.345,35.914 499.411,36.11 498.819,35.045C498.531,34.529 498.146,33.947 497.671,33.34C497.296,32.869 496.948,32.287 496.442,31.817C495.963,31.373 495.289,31.106 494.678,30.703C494.15,30.361 493.665,29.865 493.03,29.582C492.49,29.342 491.794,29.459 491.166,29.279C490.671,29.137 490.155,29.029 489.606,28.938C488.558,28.697 488.809,28.41 487.557,28.24C486.962,28.16 486.265,28.277 485.547,28.256C484.842,28.236 484.081,27.928 483.352,28.024C482.693,28.11 481.401,28.51 481.401,28.51C480.825,28.725 480.314,29.143 479.846,29.518L479.881,29.519Z" style="fill:rgb(50,154,54);fill-rule:nonzero;"/>
                    </g>
                    <g id="GPfoteAbdruck" transform="matrix(1.6331,0,0,1.6331,-379.149,-301.149)">
                        <path id="path178" d="M570.047,457.448C570.327,457.025 570.632,456.652 570.944,456.318C571.32,455.914 571.679,455.522 572.081,455.252C572.51,454.968 572.998,454.881 573.424,454.76C573.927,454.618 574.38,454.585 574.83,454.693C575.247,454.791 575.702,454.879 576.029,455.21C576.407,455.593 576.685,456.138 576.844,456.725C576.979,457.237 577.04,457.832 577.015,458.435C576.992,458.962 576.815,459.507 576.671,460.065C576.545,460.56 576.439,461.084 576.219,461.573C576.012,462.035 575.799,462.525 575.508,462.965C575.233,463.386 574.804,463.673 574.493,464.009C574.116,464.412 573.729,464.74 573.327,465.009C572.899,465.294 572.503,465.566 572.076,465.689C571.574,465.834 571.067,465.884 570.615,465.776C570.197,465.676 569.812,465.434 569.486,465.102C569.11,464.718 568.859,464.199 568.705,463.612C568.569,463.102 568.497,462.532 568.524,461.929C568.547,461.399 568.536,460.821 568.679,460.262C568.806,459.773 569.082,459.301 569.301,458.812C569.508,458.346 569.766,457.891 570.055,457.452L570.081,457.385L570.047,457.448" style="fill:white;fill-rule:nonzero;"/>
                        <path id="path180" d="M580.064,456.825C580.235,456.352 580.319,456.245 580.545,455.848C580.82,455.366 581.11,454.946 581.439,454.594C581.79,454.218 582.181,453.973 582.567,453.757C583.028,453.501 583.45,453.33 583.914,453.33C584.341,453.334 584.699,453.498 585.092,453.743C585.545,454.03 585.907,454.407 586.195,454.943C586.443,455.409 586.781,455.896 586.895,456.491C586.991,457.009 586.979,457.582 586.968,458.158C586.958,458.665 586.838,459.181 586.735,459.705C586.64,460.204 586.646,460.751 586.466,461.245C586.291,461.718 585.915,462.079 585.689,462.476C585.416,462.955 585.215,463.449 584.884,463.804C584.535,464.179 584.085,464.371 583.698,464.586C583.241,464.843 582.809,464.943 582.345,464.942C581.916,464.942 581.498,464.929 581.105,464.684C580.649,464.398 580.339,463.929 580.055,463.396C579.804,462.929 579.57,462.421 579.457,461.825C579.358,461.307 579.291,460.749 579.303,460.174C579.313,459.668 579.363,459.143 579.463,458.618C579.559,458.119 579.509,457.996 579.69,457.504L579.883,457.146C579.875,457.142 580.064,456.825 580.064,456.825" style="fill:white;fill-rule:nonzero;"/>
                        <path id="path182" d="M564.11,448.73C564.565,448.46 564.992,448.16 565.444,448.018C565.919,447.871 566.413,447.966 566.858,447.955C567.378,447.938 567.847,447.965 568.287,448.125C568.738,448.289 569.207,448.446 569.527,448.782C569.798,449.066 570.034,449.435 570.184,449.835C570.379,450.351 570.431,450.948 570.383,451.527C570.339,452.037 570.14,452.555 569.927,453.071C569.742,453.524 569.442,453.932 569.143,454.355C568.847,454.769 568.568,455.217 568.179,455.574C567.823,455.893 567.395,456.135 566.971,456.385C566.516,456.654 566.085,456.922 565.633,457.062C565.158,457.214 564.681,457.173 564.235,457.185C563.718,457.199 563.203,457.298 562.762,457.138C562.313,456.976 561.943,456.638 561.62,456.301C561.351,456.017 561.093,455.693 560.943,455.294C560.751,454.778 560.65,454.189 560.7,453.61C560.743,453.099 560.976,452.589 561.187,452.074C561.375,451.619 561.646,451.198 561.947,450.774C562.242,450.36 562.54,449.934 562.931,449.578C563.283,449.255 563.643,448.905 564.067,448.655L564.12,448.705C564.123,448.712 564.11,448.73 564.11,448.73" style="fill:white;fill-rule:nonzero;"/>
                        <path id="path184" d="M564.095,438.381C564.71,438.33 565.323,438.399 565.865,438.551C566.428,438.709 566.887,439.055 567.315,439.384C567.754,439.718 568.203,440.062 568.445,440.53C568.651,440.937 568.63,441.419 568.65,441.898C568.673,442.462 568.558,442.968 568.316,443.469C568.083,443.96 567.85,444.484 567.416,444.862C567.002,445.225 566.494,445.566 565.944,445.778C565.48,445.955 564.95,446.051 564.423,446.091C563.807,446.138 563.217,445.996 562.677,445.845C562.113,445.688 561.602,445.454 561.175,445.125C560.737,444.789 560.451,444.348 560.212,443.876C560.003,443.469 559.889,443.054 559.871,442.574C559.846,442.012 559.812,441.432 560.05,440.932C560.284,440.443 560.758,440.091 561.189,439.712C561.607,439.346 562.064,439.019 562.618,438.805C563.082,438.629 563.57,438.449 564.097,438.409L564.055,438.442C564.051,438.414 564.095,438.381 564.095,438.381" style="fill:white;fill-rule:nonzero;"/>
                        <path id="path186" d="M587.686,439.148C588.121,439.452 588.435,439.779 588.745,440.235C589.029,440.658 589.293,441.091 589.431,441.665C589.541,442.142 589.625,442.643 589.612,443.237C589.6,443.725 589.516,444.235 589.405,444.81C589.323,445.232 589.331,445.699 589.19,446.169C588.966,446.942 589.019,446.785 588.545,447.637C588.315,448.049 588.007,448.515 587.627,449.001C587.327,449.378 587.048,449.843 586.643,450.219C586.26,450.574 585.721,450.788 585.232,451.11C584.81,451.384 584.422,451.781 583.914,452.007C583.482,452.199 582.925,452.105 582.423,452.249C582.027,452.363 581.614,452.449 581.175,452.522C580.336,452.715 580.537,452.945 579.535,453.081C579.059,453.145 578.502,453.051 577.927,453.068C577.363,453.084 576.755,453.33 576.171,453.254C575.644,453.185 574.611,452.865 574.611,452.865C574.15,452.693 573.741,452.358 573.367,452.058L573.415,452.057C573.402,452.068 573.365,452.042 573.365,452.042C572.911,451.31 572.971,451.501 572.498,450.545C572.283,450.109 572.134,449.546 571.89,448.955C571.689,448.478 571.578,447.922 571.381,447.358C571.195,446.812 570.993,446.246 570.835,445.638C570.691,445.089 570.685,444.51 570.586,443.929C570.483,443.352 570.259,443.062 570.215,442.463C570.174,441.927 570.275,441.124 570.291,440.576C570.309,440.033 570.281,439.498 570.363,438.955C570.446,438.417 570.342,437.829 570.498,437.298C570.651,436.774 570.784,436.209 571.021,435.698C571.251,435.198 571.646,434.749 571.962,434.268C572.21,433.892 572.627,433.652 572.933,433.292C573.602,432.696 573.571,432.868 574.515,432.61C575.913,432.378 576.609,432.584 577.979,433.565C579.715,434.812 579.148,435.246 579.632,436.337C580.113,437.427 579.859,437.358 580.23,437.876C580.597,438.391 580.986,438.084 581.751,437.976C582.514,437.865 583.261,437.869 584.219,437.932C585.178,437.991 585.951,438.291 586.819,438.719L587.686,439.148" style="fill:white;fill-rule:nonzero;"/>
                    </g>
                </g>
                <g id="GHand" transform="matrix(2.04248,0,0,-2.04248,-1015.52,971.553)">
                    <g id="GHandRand" transform="matrix(0.8,0,0,-0.8,189.49,475.673)">
                        <path d="M415.256,-0C398.348,-0 384.641,13.704 384.641,30.614C384.641,47.521 398.348,61.228 415.256,61.228C432.163,61.228 445.87,47.521 445.87,30.614C445.87,13.704 432.163,-0 415.256,-0ZM415.256,3.828C430.048,3.828 442.042,15.817 442.042,30.614C442.042,45.407 430.048,57.402 415.256,57.402C400.461,57.402 388.467,45.407 388.467,30.614C388.467,15.817 400.461,3.828 415.256,3.828Z" style="fill:rgb(101,99,99);fill-rule:nonzero;"/>
                    </g>
                    <g id="GHandNegativ" transform="matrix(0.8,0,0,-0.8,189.49,475.673)">
                        <path d="M442.042,30.615C442.042,45.408 430.048,57.402 415.256,57.402C400.461,57.402 388.467,45.408 388.467,30.615C388.467,15.818 400.461,3.828 415.256,3.828C430.048,3.828 442.042,15.818 442.042,30.615ZM426.373,10.016C424.344,9.287 422.68,10.926 420.861,14.84C420.118,16.438 419.891,17.338 419.632,18.055C419.251,19.108 419.322,19.707 418.388,20.733C416.414,22.897 415.738,24.67 416.292,26.041C416.6,26.801 417.293,27.244 418.102,27.194C421.217,26.996 421.882,24.49 422.24,23.143L422.507,22.307C422.687,22.006 422.993,21.723 423.348,21.393C423.967,20.824 424.155,20.318 424.949,19.115C425.5,18.281 425.806,17.59 426.33,16.797L427.254,15.352C428.15,13.891 428.427,12.635 428.067,11.623C427.883,11.1 427.441,10.399 426.373,10.016ZM409.84,24.963C410.827,24.688 411.324,24.311 411.596,23.725C411.795,23.297 411.874,22.754 411.935,22.057L411.94,18.494C412.015,17.84 412.574,16.303 413.067,14.947L413.856,12.692C414.413,10.959 414.323,9.303 413.617,8.266C413.148,7.572 412.445,7.178 411.586,7.121C409.226,6.959 408.545,9.416 407.943,11.582L407.686,12.488C407.262,13.932 407.38,15.139 407.485,16.205C407.576,17.135 407.662,18.012 407.412,19.049C406.946,20.965 407.052,23.461 408.151,24.522C408.617,24.972 409.234,25.132 409.838,24.963L409.84,24.963ZM397.69,13.483C396.535,14.176 395.914,16.219 396.277,17.297C396.277,17.299 396.468,17.869 396.468,17.869L397.629,21.559L398.428,23.629C398.68,24.178 398.919,24.697 398.98,25.076C399.099,25.826 399.411,26.809 400.22,27.236C400.575,27.422 401.157,27.567 401.932,27.195C402.572,26.891 403.024,26.33 403.238,25.576C403.513,24.615 403.352,23.434 402.843,22.637C402.567,22.207 402.286,21.35 402.04,20.592L401.304,18.682C401.274,18.594 401.337,18.258 401.379,18.033C401.548,17.147 401.829,15.662 400.341,14.082C399.153,12.82 398.09,13.242 397.69,13.483ZM435.518,43.709C435.746,42.844 435.501,42.02 434.838,41.442C433.402,40.19 430.995,40.381 429.472,41.022L427.324,42.047C426.051,42.514 424.917,43.047 423.995,43.047C423.898,43.045 423.602,43.045 423.209,42.641C423.029,42.455 422.882,42.231 422.752,42C422.752,41.996 422.753,41.99 422.753,41.984C422.782,41.029 421.913,39.965 422.642,38.289C424.051,35.061 423.973,31.734 420.473,30.834C418.755,30.391 418.763,29.32 417.111,28.412C415.458,27.506 414.574,28.649 413.008,28.748C411.44,28.852 410.75,26.617 409.237,26.604C407.721,26.592 406.05,29.473 404.827,29.096C402.171,28.276 401.067,28.867 400.561,30.844C400.059,32.824 400.438,34.381 399.17,37.111C397.951,39.736 398.481,40.383 397.751,44.33C397.026,48.277 399.076,49.879 400.781,50.672C402.487,51.463 405.86,51.276 405.86,51.276C407.26,51.234 410.888,54.442 413.18,54.262C415.475,54.084 418.386,51.981 420.446,51.416C421.675,51.08 422.848,49.69 423.775,48.496C424.136,48.268 424.709,47.971 425.537,47.729L426.272,47.604C426.903,47.539 427.767,47.447 429.841,46.817L432.077,46.309C433.561,46.043 434.961,45.795 435.518,43.709ZM431.16,21.414L430.499,22.039C429.359,22.783 426.878,25.371 426.086,26.453C425.853,26.774 425.421,27.09 425.005,27.397C424.258,27.947 423.486,28.516 423.337,29.444L423.323,29.537L423.367,31.152L423.612,31.522C424.72,33.223 426.313,32.697 428.362,31.385C430.069,30.293 431.075,28.944 431.809,27.957C432.118,27.539 432.544,26.967 432.729,26.885C433.842,26.574 436.285,24.758 436.754,22.858C436.983,21.926 436.729,21.055 436.04,20.404C434.002,18.479 432.011,20.535 431.16,21.414Z" style="fill:rgb(50,154,54);fill-rule:nonzero;"/>
                    </g>
                    <g id="GHandAbdruck">
                        <path id="path168" d="M507.642,464.886C506.718,464.332 506.221,462.698 506.511,461.835C506.511,461.833 506.664,461.378 506.664,461.378L507.593,458.425L508.232,456.769C508.434,456.33 508.625,455.915 508.674,455.612C508.769,455.012 509.019,454.225 509.666,453.884C509.95,453.735 510.415,453.619 511.035,453.917L511.036,453.917C511.548,454.16 511.909,454.609 512.08,455.212C512.3,455.981 512.171,456.925 511.764,457.563C511.543,457.907 511.319,458.593 511.122,459.199L510.533,460.727C510.509,460.798 510.559,461.066 510.593,461.246C510.728,461.955 510.953,463.143 509.763,464.407C508.812,465.417 507.962,465.079 507.642,464.886" style="fill:white;fill-rule:nonzero;"/>
                        <path id="path170" d="M518.759,469.976C516.871,470.105 516.326,468.14 515.844,466.407L515.639,465.682C515.299,464.527 515.394,463.562 515.478,462.709C515.551,461.965 515.619,461.263 515.419,460.434C515.047,458.901 515.131,456.904 516.011,456.055C516.384,455.694 516.878,455.566 517.362,455.702C518.151,455.922 518.549,456.224 518.767,456.693C518.926,457.035 518.989,457.469 519.038,458.027L519.042,460.878C519.102,461.401 519.549,462.63 519.943,463.715L520.575,465.519C521.02,466.905 520.948,468.23 520.383,469.06C520.008,469.615 519.446,469.93 518.759,469.976ZM517.362,455.702L517.36,455.702L517.362,455.702" style="fill:white;fill-rule:nonzero;"/>
                        <path id="path172" d="M530.588,467.66C528.965,468.243 527.634,466.932 526.179,463.801C525.584,462.522 525.403,461.802 525.195,461.229C524.891,460.386 524.947,459.907 524.2,459.086C522.621,457.355 522.08,455.937 522.523,454.84C522.77,454.232 523.324,453.878 523.971,453.918L523.972,453.918C526.464,454.076 526.995,456.081 527.282,457.158L527.495,457.827C527.639,458.068 527.884,458.294 528.168,458.558C528.663,459.014 528.814,459.418 529.449,460.381C529.89,461.048 530.135,461.601 530.554,462.235L531.293,463.391C532.01,464.56 532.231,465.565 531.943,466.374C531.796,466.793 531.443,467.354 530.588,467.66" style="fill:white;fill-rule:nonzero;"/>
                        <path id="path174" d="M537.904,440.705C538.087,441.398 537.891,442.057 537.36,442.519C536.211,443.521 534.286,443.368 533.067,442.855L531.349,442.035C530.331,441.662 529.423,441.235 528.686,441.235C528.608,441.237 528.371,441.237 528.057,441.56C527.913,441.709 527.795,441.888 527.691,442.073C527.691,442.076 527.692,442.081 527.692,442.085C527.715,442.849 527.02,443.701 527.603,445.042C528.731,447.624 528.668,450.285 525.868,451.005C524.494,451.36 524.5,452.217 523.179,452.943C521.856,453.668 521.149,452.754 519.896,452.674C518.642,452.591 518.09,454.379 516.879,454.389C515.667,454.399 514.33,452.094 513.351,452.396C511.227,453.052 510.343,452.579 509.939,450.998C509.537,449.414 509.84,448.168 508.826,445.984C507.851,443.884 508.275,443.366 507.691,440.209C507.111,437.051 508.751,435.769 510.115,435.135C511.479,434.502 514.178,434.652 514.178,434.652C515.298,434.685 518.2,432.119 520.034,432.263C521.87,432.405 524.199,434.088 525.847,434.54C526.83,434.809 527.768,435.921 528.51,436.876C528.799,437.058 529.257,437.296 529.919,437.489L530.507,437.589C531.012,437.642 531.703,437.715 533.363,438.219L535.151,438.625C536.339,438.838 537.459,439.037 537.904,440.705" style="fill:white;fill-rule:nonzero;"/>
                        <path id="path176" d="M534.418,458.542L533.889,458.042C532.977,457.446 530.992,455.376 530.359,454.51C530.172,454.254 529.827,454.001 529.494,453.755C528.896,453.315 528.279,452.86 528.159,452.118L528.148,452.043L528.183,450.751L528.379,450.455C529.266,449.094 530.54,449.515 532.179,450.565C533.545,451.438 534.35,452.518 534.937,453.307C535.184,453.642 535.525,454.099 535.673,454.165C536.563,454.414 538.518,455.866 538.893,457.386C539.076,458.132 538.873,458.829 538.322,459.349C536.691,460.889 535.099,459.245 534.418,458.542" style="fill:white;fill-rule:nonzero;"/>
                    </g>
                </g>
            </g>
            <g id="GSlogan" transform="matrix(0.82085,0,0,-0.82085,181.05,445.985)">
                <path d="M28.129,109.295L24.98,96.355L16.313,96.355L13.212,109.295L10.722,109.295L19.316,73.601L21.782,73.601L30.571,109.295L28.129,109.295ZM24.418,93.938L21.269,80.633C20.943,79.135 20.691,77.719 20.512,76.385C20.366,77.801 20.138,79.217 19.829,80.633L16.777,93.938L24.418,93.938Z" style="fill:white;fill-rule:nonzero;"/>
                <path d="M46.074,109.295L46.074,91.033C46.074,86.639 44.772,84.441 42.167,84.441C40.182,84.441 38.729,85.263 37.809,86.907C36.89,88.551 36.43,91.163 36.43,94.744L36.43,109.295L34.111,109.295L34.111,82.806L36.064,82.806L36.259,86.492L36.479,86.492C37.032,85.157 37.83,84.124 38.871,83.392C39.913,82.659 41.028,82.293 42.216,82.293C44.267,82.293 45.805,82.981 46.83,84.356C47.856,85.731 48.369,87.941 48.369,90.984L48.369,109.295L46.074,109.295Z" style="fill:white;fill-rule:nonzero;"/>
                <path
                    d="M69.218,82.806L69.218,84.441L65.605,84.856C66.093,85.491 66.492,86.399 66.801,87.579C67.11,88.759 67.265,89.967 67.265,91.204C67.265,93.776 66.683,95.859 65.519,97.454C64.356,99.049 62.822,99.847 60.917,99.847L60.331,99.847L59.819,99.798C59.038,100.351 58.423,100.905 57.975,101.458C57.528,102.011 57.304,102.654 57.304,103.387C57.304,104.135 57.597,104.717 58.183,105.132C58.769,105.547 59.558,105.755 60.551,105.755L62.211,105.755C64.571,105.755 66.402,106.365 67.705,107.586C69.007,108.807 69.658,110.573 69.658,112.884C69.658,115.472 68.783,117.522 67.033,119.036C65.283,120.55 62.976,121.307 60.112,121.307C57.719,121.307 55.88,120.7 54.594,119.488C53.308,118.275 52.665,116.53 52.665,114.251C52.665,112.591 53.089,111.171 53.935,109.991C54.781,108.811 56.108,107.879 57.914,107.195C57.101,106.837 56.446,106.341 55.949,105.706C55.453,105.071 55.205,104.314 55.205,103.435C55.205,102.638 55.469,101.926 55.998,101.299C56.527,100.673 57.28,100.001 58.256,99.285C56.905,98.667 55.884,97.666 55.192,96.282C54.501,94.899 54.155,93.271 54.155,91.399C54.155,88.584 54.749,86.362 55.937,84.734C57.125,83.107 58.753,82.293 60.82,82.293C61.927,82.293 62.854,82.464 63.603,82.806L69.218,82.806ZM54.96,114.056C54.96,115.732 55.396,117.042 56.267,117.986C57.137,118.93 58.452,119.402 60.209,119.402C62.39,119.402 64.12,118.833 65.397,117.693C66.675,116.554 67.314,114.991 67.314,113.006C67.314,111.411 66.878,110.178 66.008,109.307C65.137,108.436 63.871,108.001 62.211,108.001L60.502,108.001C58.907,108.001 57.585,108.558 56.535,109.673C55.485,110.788 54.96,112.249 54.96,114.056ZM56.401,91.448C56.401,93.613 56.8,95.253 57.597,96.368C58.395,97.483 59.453,98.04 60.771,98.04C63.603,98.04 65.019,95.761 65.019,91.204C65.019,89.007 64.657,87.29 63.933,86.053C63.208,84.816 62.154,84.197 60.771,84.197C59.355,84.197 58.273,84.832 57.524,86.101C56.775,87.371 56.401,89.153 56.401,91.448Z" style="fill:white;fill-rule:nonzero;"/>
                <path
                    d="M83.842,102.654C83.842,104.884 83.256,106.63 82.084,107.891C80.913,109.152 79.22,109.783 77.006,109.783C75.802,109.783 74.744,109.629 73.832,109.319C72.921,109.01 72.213,108.668 71.708,108.294L71.708,105.584C72.311,106.186 73.108,106.67 74.101,107.037C75.094,107.403 76.111,107.586 77.153,107.586C78.52,107.586 79.594,107.138 80.375,106.243C81.157,105.348 81.547,104.152 81.547,102.654C81.547,101.482 81.267,100.494 80.705,99.688C80.143,98.882 79.073,97.967 77.495,96.941C75.688,95.802 74.455,94.891 73.796,94.207C73.137,93.523 72.624,92.758 72.258,91.912C71.892,91.066 71.708,90.057 71.708,88.885C71.708,86.98 72.351,85.406 73.637,84.161C74.923,82.915 76.559,82.293 78.544,82.293C80.677,82.293 82.459,82.797 83.891,83.807L82.695,85.833C81.36,84.938 79.944,84.49 78.447,84.49C77.08,84.49 75.989,84.893 75.175,85.699C74.361,86.504 73.955,87.566 73.955,88.885C73.955,90.057 74.231,91.037 74.785,91.827C75.338,92.616 76.51,93.572 78.3,94.695C80.058,95.851 81.262,96.774 81.913,97.466C82.565,98.158 83.049,98.923 83.366,99.761C83.684,100.599 83.842,101.564 83.842,102.654Z" style="fill:white;fill-rule:nonzero;"/>
                <path d="M94.047,107.635C94.763,107.635 95.398,107.537 95.952,107.342L95.952,109.295C95.235,109.62 94.316,109.783 93.193,109.783C90.458,109.783 89.091,107.74 89.091,103.655L89.091,84.856L86.699,84.856L86.699,83.489L89.042,82.806L89.799,76.507L91.411,76.507L91.411,82.806L95.61,82.806L95.61,84.856L91.411,84.856L91.411,102.996C91.411,104.786 91.606,106.007 91.996,106.658C92.387,107.309 93.071,107.635 94.047,107.635Z" style="fill:white;fill-rule:nonzero;"/>
                <path d="M123.417,109.295L120.268,96.355L111.601,96.355L108.5,109.295L106.01,109.295L114.604,73.601L117.07,73.601L125.859,109.295L123.417,109.295ZM119.706,93.938L116.557,80.633C116.232,79.135 115.979,77.719 115.8,76.385C115.654,77.801 115.426,79.217 115.117,80.633L112.065,93.938L119.706,93.938Z" style="fill:white;fill-rule:nonzero;"/>
                <path
                    d="M137.602,82.342C142.778,82.342 145.366,86.891 145.366,95.989C145.366,100.481 144.723,103.903 143.437,106.255C142.151,108.607 140.296,109.783 137.871,109.783C136.601,109.783 135.445,109.433 134.404,108.733C133.362,108.033 132.499,107 131.816,105.633L131.621,105.633L131.303,109.295L129.399,109.295L129.399,71.307L131.718,71.307L131.718,83.099L131.621,86.297L131.816,86.297C133.216,83.66 135.144,82.342 137.602,82.342ZM137.504,84.49C135.47,84.49 133.997,85.385 133.085,87.176C132.174,88.966 131.718,91.904 131.718,95.989L131.718,96.6C131.718,103.989 133.679,107.684 137.602,107.684C139.392,107.684 140.731,106.731 141.618,104.827C142.505,102.923 142.949,99.977 142.949,95.989C142.949,92.164 142.517,89.292 141.655,87.371C140.792,85.45 139.409,84.49 137.504,84.49Z" style="fill:white;fill-rule:nonzero;"/>
                <path
                    d="M159.404,82.342C164.58,82.342 167.167,86.891 167.167,95.989C167.167,100.481 166.524,103.903 165.239,106.255C163.953,108.607 162.097,109.783 159.672,109.783C158.403,109.783 157.247,109.433 156.205,108.733C155.164,108.033 154.301,107 153.618,105.633L153.422,105.633L153.105,109.295L151.201,109.295L151.201,71.307L153.52,71.307L153.52,83.099L153.422,86.297L153.618,86.297C155.017,83.66 156.946,82.342 159.404,82.342ZM159.306,84.49C157.272,84.49 155.799,85.385 154.887,87.176C153.976,88.966 153.52,91.904 153.52,95.989L153.52,96.6C153.52,103.989 155.481,107.684 159.404,107.684C161.194,107.684 162.533,106.731 163.42,104.827C164.307,102.923 164.75,99.977 164.75,95.989C164.75,92.164 164.319,89.292 163.456,87.371C162.594,85.45 161.21,84.49 159.306,84.49Z" style="fill:white;fill-rule:nonzero;"/>
                <path
                    d="M183.256,109.295L182.963,105.584L182.866,105.584C181.596,108.383 179.676,109.783 177.104,109.783C175.379,109.783 173.991,109.095 172.941,107.72C171.892,106.345 171.367,104.502 171.367,102.19C171.367,99.668 172.123,97.67 173.637,96.197C175.151,94.724 177.275,93.922 180.009,93.792L182.866,93.645L182.866,91.448C182.866,88.974 182.556,87.172 181.938,86.04C181.319,84.909 180.294,84.344 178.862,84.344C177.348,84.344 175.802,84.84 174.223,85.833L173.222,84.002C175.061,82.863 176.99,82.293 179.008,82.293C181.189,82.293 182.76,82.981 183.72,84.356C184.68,85.731 185.161,88.03 185.161,91.253L185.161,109.295L183.256,109.295ZM177.617,107.806C179.277,107.806 180.567,106.988 181.486,105.352C182.406,103.716 182.866,101.401 182.866,98.406L182.866,95.647L180.107,95.794C177.975,95.908 176.392,96.498 175.358,97.564C174.325,98.63 173.808,100.188 173.808,102.239C173.808,104.16 174.15,105.568 174.833,106.463C175.517,107.358 176.445,107.806 177.617,107.806Z" style="fill:white;fill-rule:nonzero;"/>
                <path
                    d="M194.365,82.806L194.365,100.091C194.365,102.711 194.678,104.624 195.305,105.828C195.931,107.032 196.896,107.635 198.198,107.635C200.2,107.635 201.669,106.825 202.604,105.205C203.54,103.586 204.008,100.97 204.008,97.356L204.008,82.806L206.303,82.806L206.303,109.295L204.35,109.295L204.057,105.584L203.862,105.584C203.292,106.935 202.503,107.972 201.494,108.697C200.484,109.421 199.386,109.783 198.198,109.783C196.066,109.783 194.507,109.026 193.522,107.513C192.538,105.999 192.045,103.525 192.045,100.091L192.045,82.806L194.365,82.806Z" style="fill:white;fill-rule:nonzero;"/>
                <path
                    d="M220.903,109.783C218.103,109.783 215.951,108.591 214.445,106.206C212.94,103.822 212.187,100.498 212.187,96.233C212.187,91.709 212.858,88.254 214.201,85.87C215.544,83.485 217.477,82.293 219.999,82.293C222.197,82.293 223.93,83.339 225.2,85.43C226.469,87.522 227.104,90.341 227.104,93.89L227.104,96.038L214.555,96.038C214.588,99.895 215.133,102.784 216.191,104.705C217.249,106.626 218.852,107.586 221,107.586C222.661,107.586 224.41,107.041 226.249,105.95L226.249,108.196C224.557,109.254 222.774,109.783 220.903,109.783ZM219.853,84.392C216.663,84.392 214.913,87.574 214.604,93.938L224.785,93.938C224.785,91.025 224.341,88.706 223.454,86.98C222.567,85.255 221.367,84.392 219.853,84.392Z" style="fill:white;fill-rule:nonzero;"/>
                <path d="M244.951,109.295L244.951,91.033C244.951,86.639 243.649,84.441 241.044,84.441C239.059,84.441 237.606,85.263 236.686,86.907C235.767,88.551 235.307,91.163 235.307,94.744L235.307,109.295L232.988,109.295L232.988,82.806L234.941,82.806L235.136,86.492L235.356,86.492C235.909,85.157 236.707,84.124 237.748,83.392C238.79,82.659 239.905,82.293 241.093,82.293C243.144,82.293 244.682,82.981 245.707,84.356C246.733,85.731 247.246,87.941 247.246,90.984L247.246,109.295L244.951,109.295Z"
                      style="fill:white;fill-rule:nonzero;"/>
                <path
                    d="M275.786,93.694L275.786,109.295L273.393,109.295L273.393,73.601L278.276,73.601C281.759,73.601 284.306,74.423 285.917,76.067C287.529,77.711 288.334,80.169 288.334,83.44C288.334,85.914 287.895,87.949 287.016,89.544C286.137,91.139 284.664,92.335 282.597,93.133L289.677,109.295L286.992,109.295L280.327,93.694L275.786,93.694ZM275.786,91.497L279.13,91.497C281.295,91.497 282.963,90.83 284.135,89.495C285.307,88.16 285.893,86.175 285.893,83.538C285.893,80.852 285.295,78.916 284.099,77.727C282.902,76.539 281.018,75.945 278.447,75.945L275.786,75.945L275.786,91.497Z" style="fill:white;fill-rule:nonzero;"/>
                <path
                    d="M301.787,109.783C298.987,109.783 296.835,108.591 295.329,106.206C293.823,103.822 293.071,100.498 293.071,96.233C293.071,91.709 293.742,88.254 295.085,85.87C296.428,83.485 298.36,82.293 300.883,82.293C303.08,82.293 304.814,83.339 306.083,85.43C307.353,87.522 307.988,90.341 307.988,93.89L307.988,96.038L295.439,96.038C295.471,99.895 296.017,102.784 297.075,104.705C298.133,106.626 299.736,107.586 301.884,107.586C303.544,107.586 305.294,107.041 307.133,105.95L307.133,108.196C305.441,109.254 303.658,109.783 301.787,109.783ZM300.737,84.392C297.547,84.392 295.797,87.574 295.488,93.938L305.668,93.938C305.668,91.025 305.225,88.706 304.338,86.98C303.451,85.255 302.25,84.392 300.737,84.392Z" style="fill:white;fill-rule:nonzero;"/>
                <path
                    d="M324.272,102.654C324.272,104.884 323.686,106.63 322.514,107.891C321.342,109.152 319.649,109.783 317.436,109.783C316.232,109.783 315.174,109.629 314.262,109.319C313.351,109.01 312.643,108.668 312.138,108.294L312.138,105.584C312.74,106.186 313.538,106.67 314.531,107.037C315.524,107.403 316.541,107.586 317.582,107.586C318.95,107.586 320.024,107.138 320.805,106.243C321.586,105.348 321.977,104.152 321.977,102.654C321.977,101.482 321.696,100.494 321.135,99.688C320.573,98.882 319.503,97.967 317.924,96.941C316.118,95.802 314.885,94.891 314.225,94.207C313.566,93.523 313.054,92.758 312.687,91.912C312.321,91.066 312.138,90.057 312.138,88.885C312.138,86.98 312.781,85.406 314.067,84.161C315.353,82.915 316.988,82.293 318.974,82.293C321.106,82.293 322.888,82.797 324.321,83.807L323.124,85.833C321.79,84.938 320.374,84.49 318.876,84.49C317.509,84.49 316.419,84.893 315.605,85.699C314.791,86.504 314.384,87.566 314.384,88.885C314.384,90.057 314.661,91.037 315.214,91.827C315.768,92.616 316.94,93.572 318.73,94.695C320.488,95.851 321.692,96.774 322.343,97.466C322.994,98.158 323.478,98.923 323.796,99.761C324.113,100.599 324.272,101.564 324.272,102.654Z" style="fill:white;fill-rule:nonzero;"/>
                <path
                    d="M338.139,109.783C336.804,109.783 335.588,109.413 334.489,108.672C333.391,107.932 332.556,106.919 331.987,105.633L331.767,105.633L331.938,108.538L331.938,121.307L329.619,121.307L329.619,82.806L331.523,82.806L331.767,86.443L331.987,86.443C332.638,85.109 333.472,84.083 334.489,83.367C335.506,82.651 336.617,82.293 337.822,82.293C342.997,82.293 345.585,86.858 345.585,95.989C345.585,100.4 344.951,103.802 343.681,106.194C342.412,108.587 340.564,109.783 338.139,109.783ZM337.675,84.49C335.738,84.49 334.298,85.345 333.354,87.054C332.41,88.763 331.938,91.44 331.938,95.086L331.938,95.843C331.938,99.912 332.418,102.902 333.378,104.815C334.339,106.727 335.803,107.684 337.773,107.684C339.596,107.684 340.951,106.735 341.838,104.839C342.725,102.943 343.168,99.993 343.168,95.989C343.168,92.164 342.753,89.292 341.923,87.371C341.093,85.45 339.677,84.49 337.675,84.49Z" style="fill:white;fill-rule:nonzero;"/>
                <path
                    d="M358.94,109.783C356.14,109.783 353.988,108.591 352.482,106.206C350.977,103.822 350.224,100.498 350.224,96.233C350.224,91.709 350.895,88.254 352.238,85.87C353.581,83.485 355.514,82.293 358.037,82.293C360.234,82.293 361.967,83.339 363.237,85.43C364.506,87.522 365.141,90.341 365.141,93.89L365.141,96.038L352.592,96.038C352.625,99.895 353.17,102.784 354.228,104.705C355.286,106.626 356.889,107.586 359.038,107.586C360.698,107.586 362.447,107.041 364.287,105.95L364.287,108.196C362.594,109.254 360.812,109.783 358.94,109.783ZM357.89,84.392C354.7,84.392 352.95,87.574 352.641,93.938L362.822,93.938C362.822,91.025 362.378,88.706 361.491,86.98C360.604,85.255 359.404,84.392 357.89,84.392Z" style="fill:white;fill-rule:nonzero;"/>
                <path d="M373.393,96.184L374.882,93.499L381.425,82.806L383.94,82.806L377.836,92.547L384.477,109.295L382.036,109.295L376.274,94.695L373.344,98.553L373.344,109.295L371.025,109.295L371.025,71.307L373.344,71.307L373.344,91.741L373.173,96.184L373.393,96.184Z" style="fill:white;fill-rule:nonzero;"/>
                <path d="M393.242,107.635C393.958,107.635 394.593,107.537 395.146,107.342L395.146,109.295C394.43,109.62 393.51,109.783 392.387,109.783C389.653,109.783 388.286,107.74 388.286,103.655L388.286,84.856L385.893,84.856L385.893,83.489L388.237,82.806L388.994,76.507L390.605,76.507L390.605,82.806L394.804,82.806L394.804,84.856L390.605,84.856L390.605,102.996C390.605,104.786 390.8,106.007 391.191,106.658C391.581,107.309 392.265,107.635 393.242,107.635Z" style="fill:white;fill-rule:nonzero;"/>
                <path
                    d="M418.998,109.295L418.705,105.584L418.608,105.584C417.338,108.383 415.418,109.783 412.846,109.783C411.121,109.783 409.733,109.095 408.684,107.72C407.634,106.345 407.109,104.502 407.109,102.19C407.109,99.668 407.866,97.67 409.379,96.197C410.893,94.724 413.017,93.922 415.751,93.792L418.608,93.645L418.608,91.448C418.608,88.974 418.299,87.172 417.68,86.04C417.062,84.909 416.036,84.344 414.604,84.344C413.09,84.344 411.544,84.84 409.965,85.833L408.964,84.002C410.803,82.863 412.732,82.293 414.75,82.293C416.931,82.293 418.502,82.981 419.462,84.356C420.423,85.731 420.903,88.03 420.903,91.253L420.903,109.295L418.998,109.295ZM413.359,107.806C415.019,107.806 416.309,106.988 417.228,105.352C418.148,103.716 418.608,101.401 418.608,98.406L418.608,95.647L415.849,95.794C413.717,95.908 412.134,96.498 411.1,97.564C410.067,98.63 409.55,100.188 409.55,102.239C409.55,104.16 409.892,105.568 410.576,106.463C411.259,107.358 412.187,107.806 413.359,107.806Z" style="fill:white;fill-rule:nonzero;"/>
                <path
                    d="M430.107,82.806L430.107,100.091C430.107,102.711 430.42,104.624 431.047,105.828C431.673,107.032 432.638,107.635 433.94,107.635C435.942,107.635 437.411,106.825 438.347,105.205C439.282,103.586 439.75,100.97 439.75,97.356L439.75,82.806L442.045,82.806L442.045,109.295L440.092,109.295L439.799,105.584L439.604,105.584C439.034,106.935 438.245,107.972 437.236,108.697C436.227,109.421 435.128,109.783 433.94,109.783C431.808,109.783 430.249,109.026 429.265,107.513C428.28,105.999 427.788,103.525 427.788,100.091L427.788,82.806L430.107,82.806Z" style="fill:white;fill-rule:nonzero;"/>
                <path
                    d="M455.888,84.856L451.738,84.856L451.738,109.295L449.443,109.295L449.443,84.856L446.074,84.856L446.074,83.538L449.443,82.537L449.443,80.535C449.443,77.166 449.842,74.741 450.639,73.26C451.437,71.779 452.82,71.038 454.789,71.038C455.929,71.038 456.962,71.241 457.89,71.648L457.084,73.797C456.222,73.39 455.441,73.186 454.741,73.186C453.943,73.186 453.341,73.422 452.934,73.894C452.527,74.366 452.226,75.131 452.031,76.189C451.835,77.247 451.738,78.712 451.738,80.584L451.738,82.806L455.888,82.806L455.888,84.856Z" style="fill:white;fill-rule:nonzero;"/>
                <path
                    d="M468.388,82.342C473.564,82.342 476.152,86.891 476.152,95.989C476.152,100.481 475.509,103.903 474.223,106.255C472.937,108.607 471.082,109.783 468.657,109.783C467.387,109.783 466.232,109.433 465.19,108.733C464.148,108.033 463.286,107 462.602,105.633L462.407,105.633L462.089,109.295L460.185,109.295L460.185,71.307L462.504,71.307L462.504,83.099L462.407,86.297L462.602,86.297C464.002,83.66 465.93,82.342 468.388,82.342ZM468.29,84.49C466.256,84.49 464.783,85.385 463.871,87.176C462.96,88.966 462.504,91.904 462.504,95.989L462.504,96.6C462.504,103.989 464.466,107.684 468.388,107.684C470.178,107.684 471.517,106.731 472.404,104.827C473.291,102.923 473.735,99.977 473.735,95.989C473.735,92.164 473.303,89.292 472.441,87.371C471.578,85.45 470.195,84.49 468.29,84.49Z" style="fill:white;fill-rule:nonzero;"/>
                <path
                    d="M492.241,109.295L491.948,105.584L491.85,105.584C490.58,108.383 488.66,109.783 486.088,109.783C484.363,109.783 482.975,109.095 481.926,107.72C480.876,106.345 480.351,104.502 480.351,102.19C480.351,99.668 481.108,97.67 482.621,96.197C484.135,94.724 486.259,93.922 488.994,93.792L491.85,93.645L491.85,91.448C491.85,88.974 491.541,87.172 490.922,86.04C490.304,84.909 489.278,84.344 487.846,84.344C486.332,84.344 484.786,84.84 483.207,85.833L482.206,84.002C484.046,82.863 485.974,82.293 487.993,82.293C490.174,82.293 491.744,82.981 492.705,84.356C493.665,85.731 494.145,88.03 494.145,91.253L494.145,109.295L492.241,109.295ZM486.601,107.806C488.261,107.806 489.551,106.988 490.471,105.352C491.39,103.716 491.85,101.401 491.85,98.406L491.85,95.647L489.091,95.794C486.959,95.908 485.376,96.498 484.343,97.564C483.309,98.63 482.792,100.188 482.792,102.239C482.792,104.16 483.134,105.568 483.818,106.463C484.501,107.358 485.429,107.806 486.601,107.806Z" style="fill:white;fill-rule:nonzero;"/>
                <path
                    d="M503.349,82.806L503.349,100.091C503.349,102.711 503.662,104.624 504.289,105.828C504.916,107.032 505.88,107.635 507.182,107.635C509.184,107.635 510.653,106.825 511.589,105.205C512.525,103.586 512.993,100.97 512.993,97.356L512.993,82.806L515.288,82.806L515.288,109.295L513.334,109.295L513.041,105.584L512.846,105.584C512.276,106.935 511.487,107.972 510.478,108.697C509.469,109.421 508.37,109.783 507.182,109.783C505.05,109.783 503.491,109.026 502.507,107.513C501.522,105.999 501.03,103.525 501.03,100.091L501.03,82.806L503.349,82.806Z" style="fill:white;fill-rule:nonzero;"/>
                <path
                    d="M529.887,109.783C527.088,109.783 524.935,108.591 523.43,106.206C521.924,103.822 521.171,100.498 521.171,96.233C521.171,91.709 521.843,88.254 523.185,85.87C524.528,83.485 526.461,82.293 528.984,82.293C531.181,82.293 532.914,83.339 534.184,85.43C535.454,87.522 536.088,90.341 536.088,93.89L536.088,96.038L523.539,96.038C523.572,99.895 524.117,102.784 525.175,104.705C526.233,106.626 527.836,107.586 529.985,107.586C531.645,107.586 533.395,107.041 535.234,105.95L535.234,108.196C533.541,109.254 531.759,109.783 529.887,109.783ZM528.837,84.392C525.647,84.392 523.898,87.574 523.588,93.938L533.769,93.938C533.769,91.025 533.325,88.706 532.438,86.98C531.551,85.255 530.351,84.392 528.837,84.392Z" style="fill:white;fill-rule:nonzero;"/>
                <path d="M553.935,109.295L553.935,91.033C553.935,86.639 552.633,84.441 550.029,84.441C548.043,84.441 546.59,85.263 545.671,86.907C544.751,88.551 544.291,91.163 544.291,94.744L544.291,109.295L541.972,109.295L541.972,82.806L543.925,82.806L544.121,86.492L544.34,86.492C544.894,85.157 545.691,84.124 546.733,83.392C547.774,82.659 548.889,82.293 550.078,82.293C552.128,82.293 553.666,82.981 554.692,84.356C555.717,85.731 556.23,87.941 556.23,90.984L556.23,109.295L553.935,109.295Z"
                      style="fill:white;fill-rule:nonzero;"/>
                <path d="M599.565,73.601L599.565,97.698C599.565,105.755 596.684,109.783 590.922,109.783C588.041,109.783 585.844,108.741 584.33,106.658C582.817,104.575 582.06,101.588 582.06,97.698L582.06,73.601L584.477,73.601L584.477,97.991C584.477,101.084 585.034,103.44 586.149,105.059C587.264,106.678 588.855,107.488 590.922,107.488C592.973,107.488 594.527,106.678 595.585,105.059C596.643,103.44 597.172,101.051 597.172,97.893L597.172,73.601L599.565,73.601Z" style="fill:white;fill-rule:nonzero;"/>
                <path d="M618.681,109.295L618.681,91.033C618.681,86.639 617.379,84.441 614.775,84.441C612.789,84.441 611.337,85.263 610.417,86.907C609.497,88.551 609.038,91.163 609.038,94.744L609.038,109.295L606.718,109.295L606.718,82.806L608.671,82.806L608.867,86.492L609.086,86.492C609.64,85.157 610.437,84.124 611.479,83.392C612.521,82.659 613.635,82.293 614.824,82.293C616.874,82.293 618.413,82.981 619.438,84.356C620.463,85.731 620.976,87.941 620.976,90.984L620.976,109.295L618.681,109.295Z"
                      style="fill:white;fill-rule:nonzero;"/>
                <path
                    d="M634.721,84.856L630.571,84.856L630.571,109.295L628.276,109.295L628.276,84.856L624.907,84.856L624.907,83.538L628.276,82.537L628.276,80.535C628.276,77.166 628.675,74.741 629.472,73.26C630.27,71.779 631.653,71.038 633.622,71.038C634.762,71.038 635.795,71.241 636.723,71.648L635.917,73.797C635.055,73.39 634.274,73.186 633.574,73.186C632.776,73.186 632.174,73.422 631.767,73.894C631.36,74.366 631.059,75.131 630.864,76.189C630.668,77.247 630.571,78.712 630.571,80.584L630.571,82.806L634.721,82.806L634.721,84.856Z" style="fill:white;fill-rule:nonzero;"/>
                <path
                    d="M649.272,109.295L648.979,105.584L648.881,105.584C647.612,108.383 645.691,109.783 643.12,109.783C641.394,109.783 640.007,109.095 638.957,107.72C637.907,106.345 637.382,104.502 637.382,102.19C637.382,99.668 638.139,97.67 639.653,96.197C641.166,94.724 643.29,93.922 646.025,93.792L648.881,93.645L648.881,91.448C648.881,88.974 648.572,87.172 647.954,86.04C647.335,84.909 646.31,84.344 644.877,84.344C643.364,84.344 641.817,84.84 640.239,85.833L639.238,84.002C641.077,82.863 643.006,82.293 645.024,82.293C647.205,82.293 648.775,82.981 649.736,84.356C650.696,85.731 651.176,88.03 651.176,91.253L651.176,109.295L649.272,109.295ZM643.632,107.806C645.292,107.806 646.582,106.988 647.502,105.352C648.421,103.716 648.881,101.401 648.881,98.406L648.881,95.647L646.122,95.794C643.99,95.908 642.407,96.498 641.374,97.564C640.34,98.63 639.824,100.188 639.824,102.239C639.824,104.16 640.165,105.568 640.849,106.463C641.533,107.358 642.46,107.806 643.632,107.806ZM639.506,75.384C639.506,74.684 639.665,74.179 639.982,73.87C640.3,73.561 640.662,73.406 641.069,73.406C641.443,73.406 641.785,73.561 642.094,73.87C642.403,74.179 642.558,74.684 642.558,75.384C642.558,76.1 642.403,76.621 642.094,76.946C641.785,77.272 641.443,77.434 641.069,77.434C640.662,77.434 640.3,77.272 639.982,76.946C639.665,76.621 639.506,76.1 639.506,75.384ZM646.953,75.384C646.953,74.684 647.111,74.179 647.429,73.87C647.746,73.561 648.092,73.406 648.466,73.406C648.873,73.406 649.231,73.561 649.54,73.87C649.85,74.179 650.004,74.684 650.004,75.384C650.004,76.1 649.85,76.621 649.54,76.946C649.231,77.272 648.873,77.434 648.466,77.434C648.092,77.434 647.746,77.272 647.429,76.946C647.111,76.621 646.953,76.1 646.953,75.384Z" style="fill:white;fill-rule:nonzero;"/>
                <rect x="658.159" y="71.307" width="2.319" height="37.988" style="fill:white;fill-rule:nonzero;"/>
                <rect x="667.558" y="71.307" width="2.319" height="37.988" style="fill:white;fill-rule:nonzero;"/>
                <path
                    d="M684.477,109.783C681.677,109.783 679.525,108.591 678.019,106.206C676.514,103.822 675.761,100.498 675.761,96.233C675.761,91.709 676.433,88.254 677.775,85.87C679.118,83.485 681.051,82.293 683.574,82.293C685.771,82.293 687.504,83.339 688.774,85.43C690.043,87.522 690.678,90.341 690.678,93.89L690.678,96.038L678.129,96.038C678.162,99.895 678.707,102.784 679.765,104.705C680.823,106.626 682.426,107.586 684.575,107.586C686.235,107.586 687.984,107.041 689.824,105.95L689.824,108.196C688.131,109.254 686.349,109.783 684.477,109.783ZM683.427,84.392C680.237,84.392 678.487,87.574 678.178,93.938L688.359,93.938C688.359,91.025 687.915,88.706 687.028,86.98C686.141,85.255 684.941,84.392 683.427,84.392Z" style="fill:white;fill-rule:nonzero;"/>
                <path d="M708.915,109.295L702.665,82.806L705.009,82.806L708.964,99.847C709.42,101.816 709.859,103.964 710.283,106.292L710.478,106.292C710.592,105.446 710.755,104.502 710.966,103.46C711.178,102.418 712.781,95.533 715.776,82.806L718.12,82.806L711.674,109.295L708.915,109.295Z" style="fill:white;fill-rule:nonzero;"/>
                <path
                    d="M729.423,109.783C726.624,109.783 724.471,108.591 722.966,106.206C721.46,103.822 720.707,100.498 720.707,96.233C720.707,91.709 721.379,88.254 722.722,85.87C724.064,83.485 725.997,82.293 728.52,82.293C730.717,82.293 732.451,83.339 733.72,85.43C734.99,87.522 735.624,90.341 735.624,93.89L735.624,96.038L723.076,96.038C723.108,99.895 723.653,102.784 724.711,104.705C725.769,106.626 727.372,107.586 729.521,107.586C731.181,107.586 732.931,107.041 734.77,105.95L734.77,108.196C733.077,109.254 731.295,109.783 729.423,109.783ZM728.373,84.392C725.183,84.392 723.434,87.574 723.124,93.938L733.305,93.938C733.305,91.025 732.862,88.706 731.975,86.98C731.087,85.255 729.887,84.392 728.373,84.392Z" style="fill:white;fill-rule:nonzero;"/>
                <path d="M748.857,82.293C749.687,82.293 750.46,82.407 751.176,82.635L750.615,84.954C750.029,84.71 749.427,84.588 748.808,84.588C747.913,84.588 747.079,85.048 746.306,85.967C745.532,86.887 744.926,88.169 744.487,89.812C744.047,91.456 743.828,93.271 743.828,95.257L743.828,109.295L741.508,109.295L741.508,82.806L743.413,82.806L743.657,87.444L743.828,87.444C745.065,84.01 746.741,82.293 748.857,82.293Z" style="fill:white;fill-rule:nonzero;"/>
                <path
                    d="M767.119,109.295L767.119,91.033C767.119,88.641 766.805,86.944 766.179,85.943C765.552,84.942 764.531,84.441 763.115,84.441C761.243,84.441 759.835,85.271 758.891,86.932C757.947,88.592 757.475,91.212 757.475,94.793L757.475,109.295L755.156,109.295L755.156,71.307L757.475,71.307L757.475,83.636C757.475,84.759 757.442,85.695 757.377,86.443L757.573,86.443C758.093,85.125 758.879,84.104 759.929,83.379C760.978,82.655 762.073,82.293 763.212,82.293C765.458,82.293 767.053,83.025 767.997,84.49C768.941,85.955 769.413,88.136 769.413,91.033L769.413,109.295L767.119,109.295Z" style="fill:white;fill-rule:nonzero;"/>
                <path
                    d="M778.618,82.806L778.618,100.091C778.618,102.711 778.931,104.624 779.558,105.828C780.184,107.032 781.149,107.635 782.451,107.635C784.453,107.635 785.921,106.825 786.857,105.205C787.793,103.586 788.261,100.97 788.261,97.356L788.261,82.806L790.556,82.806L790.556,109.295L788.603,109.295L788.31,105.584L788.115,105.584C787.545,106.935 786.756,107.972 785.746,108.697C784.737,109.421 783.639,109.783 782.451,109.783C780.318,109.783 778.76,109.026 777.775,107.513C776.791,105.999 776.298,103.525 776.298,100.091L776.298,82.806L778.618,82.806ZM778.178,75.384C778.178,74.684 778.337,74.179 778.654,73.87C778.972,73.561 779.334,73.406 779.741,73.406C780.115,73.406 780.457,73.561 780.766,73.87C781.075,74.179 781.23,74.684 781.23,75.384C781.23,76.1 781.075,76.621 780.766,76.946C780.457,77.272 780.115,77.434 779.741,77.434C779.334,77.434 778.972,77.272 778.654,76.946C778.337,76.621 778.178,76.1 778.178,75.384ZM785.624,75.384C785.624,74.684 785.783,74.179 786.1,73.87C786.418,73.561 786.764,73.406 787.138,73.406C787.545,73.406 787.903,73.561 788.212,73.87C788.522,74.179 788.676,74.684 788.676,75.384C788.676,76.1 788.522,76.621 788.212,76.946C787.903,77.272 787.545,77.434 787.138,77.434C786.764,77.434 786.418,77.272 786.1,76.946C785.783,76.621 785.624,76.1 785.624,75.384Z" style="fill:white;fill-rule:nonzero;"/>
                <path d="M802.495,107.635C803.211,107.635 803.845,107.537 804.399,107.342L804.399,109.295C803.683,109.62 802.763,109.783 801.64,109.783C798.906,109.783 797.538,107.74 797.538,103.655L797.538,84.856L795.146,84.856L795.146,83.489L797.49,82.806L798.246,76.507L799.858,76.507L799.858,82.806L804.057,82.806L804.057,84.856L799.858,84.856L799.858,102.996C799.858,104.786 800.053,106.007 800.444,106.658C800.834,107.309 801.518,107.635 802.495,107.635Z"
                      style="fill:white;fill-rule:nonzero;"/>
                <path
                    d="M816.118,109.783C813.318,109.783 811.166,108.591 809.66,106.206C808.155,103.822 807.402,100.498 807.402,96.233C807.402,91.709 808.073,88.254 809.416,85.87C810.759,83.485 812.691,82.293 815.214,82.293C817.412,82.293 819.145,83.339 820.414,85.43C821.684,87.522 822.319,90.341 822.319,93.89L822.319,96.038L809.77,96.038C809.802,99.895 810.348,102.784 811.406,104.705C812.464,106.626 814.067,107.586 816.215,107.586C817.875,107.586 819.625,107.041 821.464,105.95L821.464,108.196C819.772,109.254 817.989,109.783 816.118,109.783ZM815.068,84.392C811.878,84.392 810.128,87.574 809.819,93.938L819.999,93.938C819.999,91.025 819.556,88.706 818.669,86.98C817.782,85.255 816.581,84.392 815.068,84.392Z" style="fill:white;fill-rule:nonzero;"/>
                <path d="M840.165,109.295L840.165,91.033C840.165,86.639 838.863,84.441 836.259,84.441C834.274,84.441 832.821,85.263 831.901,86.907C830.982,88.551 830.522,91.163 830.522,94.744L830.522,109.295L828.203,109.295L828.203,82.806L830.156,82.806L830.351,86.492L830.571,86.492C831.124,85.157 831.922,84.124 832.963,83.392C834.005,82.659 835.12,82.293 836.308,82.293C838.359,82.293 839.897,82.981 840.922,84.356C841.948,85.731 842.46,87.941 842.46,90.984L842.46,109.295L840.165,109.295Z"
                      style="fill:white;fill-rule:nonzero;"/>
            </g>
        </g>
    </g>
</svg>
