<?xml version="1.0" encoding="UTF-8" standalone="no"?>
<!-- Created with Inkscape (http://www.inkscape.org/) -->

<svg
   xmlns:dc="http://purl.org/dc/elements/1.1/"
   xmlns:cc="http://creativecommons.org/ns#"
   xmlns:rdf="http://www.w3.org/1999/02/22-rdf-syntax-ns#"
   xmlns:svg="http://www.w3.org/2000/svg"
   xmlns="http://www.w3.org/2000/svg"
   xmlns:sodipodi="http://sodipodi.sourceforge.net/DTD/sodipodi-0.dtd"
   xmlns:inkscape="http://www.inkscape.org/namespaces/inkscape"
   id="svg2"
   version="1.1"
   inkscape:version="0.91 r"
   xml:space="preserve"
   width="180.52802mm"
   height="35.066334mm"
   viewBox="0 0 639.66619 124.25079"
   sodipodi:docname="KuH_Logo_Hand_Pfote_Slogan_weiss_web.svg"
   inkscape:export-filename="/media/Projekte/KindundHund/Logo/KuH_Logo_Hand_Pfote_Slogan.png"
   inkscape:export-xdpi="300"
   inkscape:export-ydpi="300"><metadata
     id="metadata8"><rdf:RDF><cc:Work
         rdf:about=""><dc:format>image/svg+xml</dc:format><dc:type
           rdf:resource="http://purl.org/dc/dcmitype/StillImage" /><dc:title></dc:title></cc:Work></rdf:RDF></metadata><defs
     id="defs6" /><sodipodi:namedview
     pagecolor="#ffffff"
     bordercolor="#666666"
     borderopacity="1"
     objecttolerance="10"
     gridtolerance="10"
     guidetolerance="10"
     inkscape:pageopacity="0"
     inkscape:pageshadow="2"
     inkscape:window-width="1920"
     inkscape:window-height="1053"
     id="namedview4"
     showgrid="false"
     inkscape:zoom="1.4142136"
     inkscape:cx="379.74811"
     inkscape:cy="24.569579"
     inkscape:window-x="1920"
     inkscape:window-y="0"
     inkscape:window-maximized="1"
     inkscape:current-layer="g10"
     fit-margin-top="0"
     fit-margin-left="0"
     fit-margin-right="0"
     fit-margin-bottom="0"
     inkscape:snap-text-baseline="true"
     units="mm" /><g
     id="g10"
     inkscape:groupmode="layer"
     inkscape:label="ink_ext_XXXXXX"
     transform="matrix(1.25,0,0,-1.25,-296.07794,743.23836)"><g
       id="g4278"
       style="fill:#ffffff;fill-opacity:1"><path
         d="m 272.94829,535.42156 -11.32813,0 -9.375,24.41407 -4.25781,-4.25782 0,-20.15625 -10.625,0 0,57.10938 10.625,0 0,-28.32031 3.71093,8.55468 9.72657,19.76563 11.36719,0 -13.20313,-24.72656 13.35938,-32.38282 z"
         style="font-style:normal;font-variant:normal;font-weight:bold;font-stretch:condensed;font-size:medium;line-height:125%;font-family:'Open Sans Condensed';-inkscape-font-specification:'Open Sans Condensed, Bold Condensed';text-align:start;letter-spacing:0px;word-spacing:0px;writing-mode:lr-tb;text-anchor:start;fill:#ffffff;fill-opacity:1;stroke:none;stroke-width:0.00120977;stroke-linecap:butt;stroke-linejoin:miter;stroke-opacity:1;stroke-miterlimit:4;stroke-dasharray:none"
         id="path4288"
         inkscape:connector-curvature="0" /><path
         d="m 279.90141,535.42156 0,57.10938 10,0 0,-57.10938 -10,0 z"
         style="font-style:normal;font-variant:normal;font-weight:bold;font-stretch:condensed;font-size:medium;line-height:125%;font-family:'Open Sans Condensed';-inkscape-font-specification:'Open Sans Condensed, Bold Condensed';text-align:start;letter-spacing:0px;word-spacing:0px;writing-mode:lr-tb;text-anchor:start;fill:#ffffff;fill-opacity:1;stroke:none;stroke-width:0.00120977;stroke-linecap:butt;stroke-linejoin:miter;stroke-opacity:1;stroke-miterlimit:4;stroke-dasharray:none"
         id="path4290"
         inkscape:connector-curvature="0" /><path
         d="m 342.04985,535.42156 -12.96875,0 -17.65625,41.36719 -0.50781,0 q 0.97656,-4.72656 0.97656,-10.15625 l 0,-31.21094 -9.84375,0 0,57.10938 13.04687,0 17.5,-40.9375 0.42969,0 q -0.74219,4.10156 -0.74219,9.76562 l 0,31.17188 9.76563,0 0,-57.10938 z"
         style="font-style:normal;font-variant:normal;font-weight:bold;font-stretch:condensed;font-size:medium;line-height:125%;font-family:'Open Sans Condensed';-inkscape-font-specification:'Open Sans Condensed, Bold Condensed';text-align:start;letter-spacing:0px;word-spacing:0px;writing-mode:lr-tb;text-anchor:start;fill:#ffffff;fill-opacity:1;stroke:none;stroke-width:0.00120977;stroke-linecap:butt;stroke-linejoin:miter;stroke-opacity:1;stroke-miterlimit:4;stroke-dasharray:none"
         id="path4292"
         inkscape:connector-curvature="0" /><path
         d="m 388.53422,564.52313 q 0,-14.14063 -5.78125,-21.64063 -5.74218,-7.46094 -16.5625,-7.46094 l -13.98437,0 0,57.10938 15.27344,0 q 9.96093,0 15.50781,-7.38281 5.54687,-7.34375 5.54687,-20.625 z m -10.89843,-0.3125 q 0,19.14062 -10.54688,19.14062 l -4.25781,0 0,-38.63281 3.4375,0 q 5.82031,0 8.59375,4.84375 2.77344,4.88281 2.77344,14.64844 z"
         style="font-style:normal;font-variant:normal;font-weight:bold;font-stretch:condensed;font-size:medium;line-height:125%;font-family:'Open Sans Condensed';-inkscape-font-specification:'Open Sans Condensed, Bold Condensed';text-align:start;letter-spacing:0px;word-spacing:0px;writing-mode:lr-tb;text-anchor:start;fill:#ffffff;fill-opacity:1;stroke:none;stroke-width:0.00120977;stroke-linecap:butt;stroke-linejoin:miter;stroke-opacity:1;stroke-miterlimit:4;stroke-dasharray:none"
         id="path4294"
         inkscape:connector-curvature="0" /><g
         id="text3356-3"
         style="font-style:normal;font-variant:normal;font-weight:bold;font-stretch:condensed;font-size:66.90798187px;line-height:125%;font-family:'Open Sans Condensed';-inkscape-font-specification:'Open Sans Condensed, Bold Condensed';text-align:start;letter-spacing:0px;word-spacing:0px;writing-mode:lr-tb;text-anchor:start;fill:#ffffff;fill-opacity:1;stroke:none;stroke-width:0.00101179;stroke-linecap:butt;stroke-linejoin:miter;stroke-opacity:1;stroke-miterlimit:4;stroke-dasharray:none"
         transform="matrix(0.83402502,0,0,-1.1990048,159.52329,274.92312)"><path
           id="path4285"
           style="font-style:normal;font-variant:normal;font-weight:normal;font-stretch:normal;font-size:66.90799713px;line-height:125%;font-family:'Open Sans';-inkscape-font-specification:'Open Sans, Normal';text-align:start;writing-mode:lr-tb;text-anchor:start;stroke-width:0.00101179;stroke-miterlimit:4;stroke-dasharray:none;stroke:none;stroke-opacity:1;fill:#ffffff;fill-opacity:1"
           d="m 290.32735,-255.43597 q 0,2.25423 1.17612,4.31243 1.17611,2.02554 4.0184,4.90049 4.21442,-2.45024 5.84791,-4.50845 1.66617,-2.09087 1.66617,-4.80248 0,-2.51558 -1.69884,-4.08374 -1.66616,-1.60082 -4.47578,-1.60082 -2.90762,0 -4.73714,1.56815 -1.79684,1.56816 -1.79684,4.21442 z m 5.06384,34.04206 q 7.87345,0 13.06796,-5.03117 l -14.27675,-13.85204 q -3.62636,2.22155 -5.12918,3.6917 -1.50281,1.43747 -2.22155,3.10364 -0.71874,1.66617 -0.71874,3.78971 0,3.82238 2.51558,6.07661 2.54826,2.22155 6.76268,2.22155 z m -14.89749,-8.16748 q 0,-4.24709 2.25423,-7.51408 2.28689,-3.26699 8.16748,-6.59932 -2.77695,-3.10365 -3.78971,-4.70447 -0.9801,-1.60083 -1.56816,-3.33234 -0.58806,-1.7315 -0.58806,-3.59369 0,-4.90048 3.20165,-7.64476 3.20166,-2.74427 8.91889,-2.74427 5.29253,0 8.33083,2.74427 3.0383,2.71161 3.0383,7.57942 0,3.49569 -2.22155,6.46865 -2.22155,2.94029 -7.35073,5.97859 l 13.29666,12.77394 q 1.82951,-2.02553 2.90762,-4.73714 1.11078,-2.74427 1.86218,-5.97859 l 5.48855,0 q -2.22155,9.3436 -6.69733,14.17874 l 9.7683,9.50695 -7.48141,0 -6.04393,-5.81524 q -3.85505,3.46301 -7.84078,4.96582 -3.98573,1.50282 -8.88622,1.50282 -7.02404,0 -10.91176,-3.46301 -3.85505,-3.46301 -3.85505,-9.57229 z"
           inkscape:connector-curvature="0" /></g><path
         d="m 472.39048,535.81219 -10.625,0 0,25.03906 -14.02344,0 0,-25.03906 -10.625,0 0,57.10937 10.625,0 0,-22.69531 14.02344,0 0,22.69531 10.625,0 0,-57.10937 z"
         style="font-style:normal;font-variant:normal;font-weight:bold;font-stretch:condensed;font-size:medium;line-height:125%;font-family:'Open Sans Condensed';-inkscape-font-specification:'Open Sans Condensed, Bold Condensed';text-align:start;letter-spacing:0px;word-spacing:0px;writing-mode:lr-tb;text-anchor:start;fill:#ffffff;fill-opacity:1;stroke:none;stroke-width:0.00120977;stroke-linecap:butt;stroke-linejoin:miter;stroke-opacity:1;stroke-miterlimit:4;stroke-dasharray:none"
         id="path4276"
         inkscape:connector-curvature="0" /><path
         d="m 517.54673,592.92156 0,-36.95312 q 0,-10.19531 -4.60938,-15.58594 -4.60937,-5.35156 -13.32031,-5.35156 -8.51563,0 -12.96875,5.3125 -4.45313,5.35156 -4.45313,15.78125 l 0,36.79687 10.54688,0 0,-37.57812 q 0,-10.89844 7.22656,-10.89844 3.35938,0 5.19531,2.77344 1.83594,2.77344 1.83594,7.89062 l 0,37.8125 10.54688,0 z"
         style="font-style:normal;font-variant:normal;font-weight:bold;font-stretch:condensed;font-size:medium;line-height:125%;font-family:'Open Sans Condensed';-inkscape-font-specification:'Open Sans Condensed, Bold Condensed';text-align:start;letter-spacing:0px;word-spacing:0px;writing-mode:lr-tb;text-anchor:start;fill:#ffffff;fill-opacity:1;stroke:none;stroke-width:0.00120977;stroke-linecap:butt;stroke-linejoin:miter;stroke-opacity:1;stroke-miterlimit:4;stroke-dasharray:none"
         id="path4278"
         inkscape:connector-curvature="0" /><path
         d="m 567.42954,535.81219 -12.96875,0 -17.65625,41.36719 -0.50781,0 q 0.97656,-4.72657 0.97656,-10.15625 l 0,-31.21094 -9.84375,0 0,57.10937 13.04687,0 17.5,-40.9375 0.42969,0 q -0.74219,4.10157 -0.74219,9.76563 l 0,31.17187 9.76563,0 0,-57.10937 z"
         style="font-style:normal;font-variant:normal;font-weight:bold;font-stretch:condensed;font-size:medium;line-height:125%;font-family:'Open Sans Condensed';-inkscape-font-specification:'Open Sans Condensed, Bold Condensed';text-align:start;letter-spacing:0px;word-spacing:0px;writing-mode:lr-tb;text-anchor:start;fill:#ffffff;fill-opacity:1;stroke:none;stroke-width:0.00120977;stroke-linecap:butt;stroke-linejoin:miter;stroke-opacity:1;stroke-miterlimit:4;stroke-dasharray:none"
         id="path4280"
         inkscape:connector-curvature="0" /><path
         d="m 613.91391,564.91375 q 0,-14.14062 -5.78125,-21.64062 -5.74218,-7.46094 -16.5625,-7.46094 l -13.98437,0 0,57.10937 15.27344,0 q 9.96093,0 15.50781,-7.38281 5.54687,-7.34375 5.54687,-20.625 z m -10.89843,-0.3125 q 0,19.14063 -10.54688,19.14063 l -4.25781,0 0,-38.63282 3.4375,0 q 5.82031,0 8.59375,4.84375 2.77344,4.88282 2.77344,14.64844 z"
         style="font-style:normal;font-variant:normal;font-weight:bold;font-stretch:condensed;font-size:medium;line-height:125%;font-family:'Open Sans Condensed';-inkscape-font-specification:'Open Sans Condensed, Bold Condensed';text-align:start;letter-spacing:0px;word-spacing:0px;writing-mode:lr-tb;text-anchor:start;fill:#ffffff;fill-opacity:1;stroke:none;stroke-width:0.00120977;stroke-linecap:butt;stroke-linejoin:miter;stroke-opacity:1;stroke-miterlimit:4;stroke-dasharray:none"
         id="path4282"
         inkscape:connector-curvature="0" /></g><g
       id="g4302"
       style="fill:#ffffff;fill-opacity:1"><path
         inkscape:connector-curvature="0"
         d="m 248.6276,502.3971 -1.92394,7.76367 -5.29457,0 -1.89412,-7.76367 -1.52126,0 5.24983,21.41602 1.50635,0 5.36914,-21.41602 -1.49143,0 z m -2.26697,9.21387 -1.92395,7.9834 q -0.29828,1.34765 -0.46233,2.54882 -0.13424,-1.27441 -0.4176,-2.54882 l -1.86429,-7.9834 4.66817,0 z"
         style="font-style:normal;font-variant:normal;font-weight:300;font-stretch:condensed;font-size:30.27100945px;line-height:125%;font-family:'Open Sans';-inkscape-font-specification:'Open Sans, Light Condensed';text-align:start;letter-spacing:0px;word-spacing:0px;writing-mode:lr-tb;text-anchor:start;fill:#ffffff;fill-opacity:1;stroke:none;stroke-width:1px;stroke-linecap:butt;stroke-linejoin:miter;stroke-opacity:1"
         id="path4162" /><path
         inkscape:connector-curvature="0"
         d="m 259.57469,502.3971 0,10.95703 q 0,3.95508 -2.38628,3.95508 -1.81954,0 -2.66966,-1.47949 -0.8352,-1.4795 -0.8352,-4.70216 l 0,-8.73046 -1.41686,0 0,15.89356 1.19315,0 0.1193,-2.21192 0.13424,0 q 0.50709,1.20118 1.4616,1.86035 0.95451,0.65918 2.04325,0.65918 1.87921,0 2.8188,-1.24512 0.9396,-1.23046 0.9396,-3.96972 l 0,-10.98633 -1.40194,0 z"
         style="font-style:normal;font-variant:normal;font-weight:300;font-stretch:condensed;font-size:30.27100945px;line-height:125%;font-family:'Open Sans';-inkscape-font-specification:'Open Sans, Light Condensed';text-align:start;letter-spacing:0px;word-spacing:0px;writing-mode:lr-tb;text-anchor:start;fill:#ffffff;fill-opacity:1;stroke:none;stroke-width:1px;stroke-linecap:butt;stroke-linejoin:miter;stroke-opacity:1"
         id="path4164" /><path
         inkscape:connector-curvature="0"
         d="m 273.74327,518.29066 0,-0.98145 -2.20731,-0.24903 q 0.44742,-0.57129 0.73079,-1.64062 0.28338,-1.05469 0.28338,-2.16796 0,-2.31447 -1.07384,-3.75001 -1.05891,-1.43555 -2.80388,-1.43555 l -0.35794,0 -0.3132,0.0293 q -0.71589,-0.49805 -1.13349,-0.99611 -0.40268,-0.49804 -0.40268,-1.15722 0,-0.67382 0.53691,-1.05468 0.53691,-0.36622 1.44669,-0.36622 l 1.01417,0 q 2.16257,0 3.35571,-1.09863 1.19314,-1.09864 1.19314,-3.17872 0,-2.3291 -1.61074,-3.6914 -1.59583,-1.3623 -4.22075,-1.3623 -2.19239,0 -3.37062,1.09863 -1.17823,1.08398 -1.17823,3.13476 0,1.49415 0.77554,2.56349 0.77555,1.05468 2.43104,1.66991 -0.74572,0.32227 -1.20807,0.89356 -0.44742,0.57129 -0.44742,1.3623 0,0.71778 0.47725,1.27442 0.49217,0.57129 1.38704,1.21582 -1.2379,0.55664 -1.87921,1.80176 -0.6264,1.24511 -0.6264,2.92969 0,2.53417 1.08874,3.99902 1.08875,1.46484 2.98287,1.46484 1.01417,0 1.70022,-0.30761 l 3.43029,0 z m -8.70995,-18.75 q 0,-1.50879 0.79046,-2.35841 0.80537,-0.8496 2.41612,-0.8496 1.99851,0 3.16182,1.02538 1.17823,1.0254 1.17823,2.81251 0,1.43555 -0.80537,2.22656 -0.79045,0.77637 -2.31171,0.77637 l -1.044,0 q -1.46161,0 -2.43103,-0.99609 -0.95452,-1.01075 -0.95452,-2.63672 z m 0.87995,13.56445 q 0,-1.94824 0.7308,-2.95899 0.73079,-0.99609 1.93886,-0.99609 2.59508,0 2.59508,4.10157 0,1.97753 -0.67115,3.09082 -0.65622,1.11328 -1.92393,1.11328 -1.29755,0 -1.98361,-1.14258 -0.68605,-1.14258 -0.68605,-3.20801 z"
         style="font-style:normal;font-variant:normal;font-weight:300;font-stretch:condensed;font-size:30.27100945px;line-height:125%;font-family:'Open Sans';-inkscape-font-specification:'Open Sans, Light Condensed';text-align:start;letter-spacing:0px;word-spacing:0px;writing-mode:lr-tb;text-anchor:start;fill:#ffffff;fill-opacity:1;stroke:none;stroke-width:1px;stroke-linecap:butt;stroke-linejoin:miter;stroke-opacity:1"
         id="path4166" /><path
         inkscape:connector-curvature="0"
         d="m 282.66202,506.38148 q 0,-2.00684 -1.07384,-3.14942 -1.07382,-1.12793 -3.10217,-1.12793 -1.10365,0 -1.93886,0.27832 -0.8352,0.27832 -1.29754,0.61524 l 0,1.62597 q 0.55183,-0.54199 1.4616,-0.8789 0.90977,-0.32227 1.86429,-0.32227 1.2528,0 1.96868,0.80566 0.71589,0.80567 0.71589,2.15333 0,1.05468 -0.522,1.77246 -0.50709,0.73242 -1.95377,1.65527 -1.65549,1.02539 -2.26698,1.64062 -0.59657,0.61524 -0.9396,1.37695 -0.32811,0.76172 -0.32811,1.81642 0,1.71386 1.17823,2.82715 1.17823,1.12792 2.99777,1.12792 1.95377,0 3.26623,-0.9082 l -0.7308,-1.21583 q -1.22297,0.80568 -2.59508,0.80568 -1.25281,0 -1.99852,-0.73243 -0.74571,-0.71777 -0.74571,-1.90429 0,-1.0547 0.50708,-1.77246 0.50709,-0.70313 2.14766,-1.71387 1.61075,-1.04004 2.20732,-1.66992 0.59657,-0.61524 0.87993,-1.37696 0.2983,-0.74707 0.2983,-1.72851 z"
         style="font-style:normal;font-variant:normal;font-weight:300;font-stretch:condensed;font-size:30.27100945px;line-height:125%;font-family:'Open Sans';-inkscape-font-specification:'Open Sans, Light Condensed';text-align:start;letter-spacing:0px;word-spacing:0px;writing-mode:lr-tb;text-anchor:start;fill:#ffffff;fill-opacity:1;stroke:none;stroke-width:1px;stroke-linecap:butt;stroke-linejoin:miter;stroke-opacity:1"
         id="path4168" /><path
         inkscape:connector-curvature="0"
         d="m 288.88126,503.39319 q 0.65624,0 1.16332,0.17579 l 0,-1.17188 q -0.65623,-0.29297 -1.68531,-0.29297 -2.5056,0 -2.5056,3.67675 l 0,11.2793 -1.46161,0 0,0.82032 1.43178,0.41016 0.46234,3.77929 0.98434,0 0,-3.77929 2.56526,0 0,-1.23048 -2.56526,0 0,-10.88378 q 0,-1.61133 0.35795,-2.19727 0.35794,-0.58594 1.25279,-0.58594 z"
         style="font-style:normal;font-variant:normal;font-weight:300;font-stretch:condensed;font-size:30.27100945px;line-height:125%;font-family:'Open Sans';-inkscape-font-specification:'Open Sans, Light Condensed';text-align:start;letter-spacing:0px;word-spacing:0px;writing-mode:lr-tb;text-anchor:start;fill:#ffffff;fill-opacity:1;stroke:none;stroke-width:1px;stroke-linecap:butt;stroke-linejoin:miter;stroke-opacity:1"
         id="path4170" /><path
         inkscape:connector-curvature="0"
         d="m 304.58601,502.3971 -0.17897,2.22656 -0.0596,0 q -1.16332,-2.51953 -3.51977,-2.51953 -1.58092,0 -2.55035,1.23047 -0.95451,1.24512 -0.95451,3.32519 0,2.27051 1.38703,3.58887 1.38702,1.33301 3.89263,1.45019 l 1.74497,0.0879 0,1.31836 q 0,2.22656 -0.56675,3.23731 -0.56674,1.02538 -1.87919,1.02538 -1.38704,0 -2.83372,-0.89356 l -0.61148,1.09864 q 1.68531,1.02539 3.53468,1.02539 1.99851,0 2.87846,-1.24512 0.87994,-1.23046 0.87994,-4.13086 l 0,-10.82519 -1.16332,0 z m -3.44519,0.89355 q 1.52125,0 2.35646,1.46485 0.85011,1.47949 0.85011,4.1748 l 0,1.65528 -1.68532,-0.0879 q -1.95377,-0.10253 -2.90828,-1.06933 -0.9396,-0.95214 -0.9396,-2.79785 0,-1.72852 0.6264,-2.53418 0.6264,-0.80567 1.70023,-0.80567 z"
         style="font-style:normal;font-variant:normal;font-weight:300;font-stretch:condensed;font-size:30.27100945px;line-height:125%;font-family:'Open Sans';-inkscape-font-specification:'Open Sans, Light Condensed';text-align:start;letter-spacing:0px;word-spacing:0px;writing-mode:lr-tb;text-anchor:start;fill:#ffffff;fill-opacity:1;stroke:none;stroke-width:1px;stroke-linecap:butt;stroke-linejoin:miter;stroke-opacity:1"
         id="path4172" /><path
         inkscape:connector-curvature="0"
         d="m 315.02602,518.56897 q 4.74274,0 4.74274,-8.18847 0,-4.04297 -1.17823,-6.167 -1.17823,-2.10937 -3.40045,-2.10937 -1.16331,0 -2.11783,0.62989 -0.95452,0.62988 -1.58091,1.86034 l -0.11932,0 -0.19389,-2.19726 -1.16331,0 0,22.79297 1.41685,0 0,-7.0752 -0.0596,-1.91894 0.11932,0 q 1.28262,2.37304 3.53468,2.37304 z m -0.0596,-1.28905 q -1.86429,0 -2.69949,-1.61134 -0.83521,-1.61132 -0.83521,-5.28808 l 0,-0.36621 q 0,-6.65039 3.59435,-6.65039 1.64057,0 2.44594,1.71387 0.82029,1.71386 0.82029,5.30273 0,3.44239 -0.79045,5.1709 -0.79046,1.72852 -2.53543,1.72852 z"
         style="font-style:normal;font-variant:normal;font-weight:300;font-stretch:condensed;font-size:30.27100945px;line-height:125%;font-family:'Open Sans';-inkscape-font-specification:'Open Sans, Light Condensed';text-align:start;letter-spacing:0px;word-spacing:0px;writing-mode:lr-tb;text-anchor:start;fill:#ffffff;fill-opacity:1;stroke:none;stroke-width:1px;stroke-linecap:butt;stroke-linejoin:miter;stroke-opacity:1"
         id="path4174" /><path
         inkscape:connector-curvature="0"
         d="m 328.32956,518.56897 q 4.74274,0 4.74274,-8.18847 0,-4.04297 -1.17822,-6.167 -1.17823,-2.10937 -3.40046,-2.10937 -1.16331,0 -2.11783,0.62989 -0.95451,0.62988 -1.58091,1.86034 l -0.11932,0 -0.19388,-2.19726 -1.16332,0 0,22.79297 1.41685,0 0,-7.0752 -0.0596,-1.91894 0.11932,0 q 1.28262,2.37304 3.53468,2.37304 z m -0.0596,-1.28905 q -1.86429,0 -2.69949,-1.61134 -0.8352,-1.61132 -0.8352,-5.28808 l 0,-0.36621 q 0,-6.65039 3.59434,-6.65039 1.64057,0 2.44595,1.71387 0.82029,1.71386 0.82029,5.30273 0,3.44239 -0.79046,5.1709 -0.79046,1.72852 -2.53543,1.72852 z"
         style="font-style:normal;font-variant:normal;font-weight:300;font-stretch:condensed;font-size:30.27100945px;line-height:125%;font-family:'Open Sans';-inkscape-font-specification:'Open Sans, Light Condensed';text-align:start;letter-spacing:0px;word-spacing:0px;writing-mode:lr-tb;text-anchor:start;fill:#ffffff;fill-opacity:1;stroke:none;stroke-width:1px;stroke-linecap:butt;stroke-linejoin:miter;stroke-opacity:1"
         id="path4176" /><path
         inkscape:connector-curvature="0"
         d="m 342.88591,502.3971 -0.17897,2.22656 -0.0596,0 q -1.16332,-2.51953 -3.51977,-2.51953 -1.58092,0 -2.55035,1.23047 -0.95451,1.24512 -0.95451,3.32519 0,2.27051 1.38703,3.58887 1.38702,1.33301 3.89262,1.45019 l 1.74498,0.0879 0,1.31836 q 0,2.22656 -0.56675,3.23731 -0.56674,1.02538 -1.8792,1.02538 -1.38703,0 -2.83371,-0.89356 l -0.61148,1.09864 q 1.6853,1.02539 3.53468,1.02539 1.99851,0 2.87846,-1.24512 0.87994,-1.23046 0.87994,-4.13086 l 0,-10.82519 -1.16332,0 z m -3.44519,0.89355 q 1.52125,0 2.35646,1.46485 0.85011,1.47949 0.85011,4.1748 l 0,1.65528 -1.68532,-0.0879 q -1.95377,-0.10253 -2.90829,-1.06933 -0.93959,-0.95214 -0.93959,-2.79785 0,-1.72852 0.6264,-2.53418 0.6264,-0.80567 1.70023,-0.80567 z"
         style="font-style:normal;font-variant:normal;font-weight:300;font-stretch:condensed;font-size:30.27100945px;line-height:125%;font-family:'Open Sans';-inkscape-font-specification:'Open Sans, Light Condensed';text-align:start;letter-spacing:0px;word-spacing:0px;writing-mode:lr-tb;text-anchor:start;fill:#ffffff;fill-opacity:1;stroke:none;stroke-width:1px;stroke-linecap:butt;stroke-linejoin:miter;stroke-opacity:1"
         id="path4178" /><path
         inkscape:connector-curvature="0"
         d="m 349.67192,518.29066 0,-10.3711 q 0,-2.3584 0.56674,-3.44238 0.58166,-1.08399 1.7748,-1.08399 1.83445,0 2.68457,1.4502 0.86503,1.46484 0.86503,4.71679 l 0,8.73048 1.40194,0 0,-15.89356 -1.19314,0 -0.17897,2.22656 -0.11931,0 q -0.52201,-1.21582 -1.44669,-1.87499 -0.92468,-0.64454 -2.01343,-0.64454 -1.95377,0 -2.86355,1.3623 -0.89485,1.36231 -0.89485,4.45313 l 0,10.3711 1.41686,0 z"
         style="font-style:normal;font-variant:normal;font-weight:300;font-stretch:condensed;font-size:30.27100945px;line-height:125%;font-family:'Open Sans';-inkscape-font-specification:'Open Sans, Light Condensed';text-align:start;letter-spacing:0px;word-spacing:0px;writing-mode:lr-tb;text-anchor:start;fill:#ffffff;fill-opacity:1;stroke:none;stroke-width:1px;stroke-linecap:butt;stroke-linejoin:miter;stroke-opacity:1"
         id="path4180" /><path
         inkscape:connector-curvature="0"
         d="m 365.91357,502.10413 q -2.56525,0 -3.95228,2.13867 -1.37211,2.15333 -1.37211,5.99122 0,4.07226 1.22296,6.21093 1.23789,2.15332 3.5496,2.15332 2.01344,0 3.17675,-1.88964 1.16331,-1.875 1.16331,-5.06837 l 0,-1.28906 -7.66594,0 q 0.0299,-3.47168 0.99925,-5.2002 0.96943,-1.72851 2.93812,-1.72851 1.52126,0 3.20658,0.98144 l 0,-1.34765 q -1.55109,-0.95215 -3.26624,-0.95215 z m -0.64131,15.23438 q -2.9232,0 -3.20658,-5.72754 l 6.21926,0 q 0,2.62207 -0.82028,4.1748 -0.80537,1.55274 -2.1924,1.55274 z"
         style="font-style:normal;font-variant:normal;font-weight:300;font-stretch:condensed;font-size:30.27100945px;line-height:125%;font-family:'Open Sans';-inkscape-font-specification:'Open Sans, Light Condensed';text-align:start;letter-spacing:0px;word-spacing:0px;writing-mode:lr-tb;text-anchor:start;fill:#ffffff;fill-opacity:1;stroke:none;stroke-width:1px;stroke-linecap:butt;stroke-linejoin:miter;stroke-opacity:1"
         id="path4182" /><path
         inkscape:connector-curvature="0"
         d="m 380.61907,502.3971 0,10.95703 q 0,3.95508 -2.3863,3.95508 -1.81954,0 -2.66965,-1.47949 -0.8352,-1.4795 -0.8352,-4.70216 l 0,-8.73046 -1.41686,0 0,15.89356 1.19314,0 0.11932,-2.21192 0.13422,0 q 0.50709,1.20118 1.46161,1.86035 0.95451,0.65918 2.04325,0.65918 1.8792,0 2.81881,-1.24512 0.9396,-1.23046 0.9396,-3.96972 l 0,-10.98633 -1.40194,0 z"
         style="font-style:normal;font-variant:normal;font-weight:300;font-stretch:condensed;font-size:30.27100945px;line-height:125%;font-family:'Open Sans';-inkscape-font-specification:'Open Sans, Light Condensed';text-align:start;letter-spacing:0px;word-spacing:0px;writing-mode:lr-tb;text-anchor:start;fill:#ffffff;fill-opacity:1;stroke:none;stroke-width:1px;stroke-linecap:butt;stroke-linejoin:miter;stroke-opacity:1"
         id="path4184" /><path
         inkscape:connector-curvature="0"
         d="m 399.45582,511.75745 0,-9.36035 -1.46161,0 0,21.41602 2.98287,0 q 3.19165,0 4.66817,-1.4795 1.47651,-1.47949 1.47651,-4.42382 0,-2.22657 -0.80537,-3.66211 -0.80537,-1.43555 -2.69949,-2.15333 l 4.32515,-9.69726 -1.64057,0 -4.07161,9.36035 -2.77405,0 z m 0,1.31836 2.04325,0 q 1.98361,0 3.05743,1.20117 1.07384,1.20117 1.07384,3.57423 0,2.41698 -1.10366,3.48632 -1.08875,1.06933 -3.44521,1.06933 l -1.62565,0 0,-9.33105 z"
         style="font-style:normal;font-variant:normal;font-weight:300;font-stretch:condensed;font-size:30.27100945px;line-height:125%;font-family:'Open Sans';-inkscape-font-specification:'Open Sans, Light Condensed';text-align:start;letter-spacing:0px;word-spacing:0px;writing-mode:lr-tb;text-anchor:start;fill:#ffffff;fill-opacity:1;stroke:none;stroke-width:1px;stroke-linecap:butt;stroke-linejoin:miter;stroke-opacity:1"
         id="path4186" /><path
         inkscape:connector-curvature="0"
         d="m 415.36936,502.10413 q -2.56526,0 -3.95229,2.13867 -1.37211,2.15333 -1.37211,5.99122 0,4.07226 1.22297,6.21093 1.23789,2.15332 3.54961,2.15332 2.01342,0 3.17674,-1.88964 1.16331,-1.875 1.16331,-5.06837 l 0,-1.28906 -7.66595,0 q 0.0299,-3.47168 0.99927,-5.2002 0.96943,-1.72851 2.93811,-1.72851 1.52125,0 3.20657,0.98144 l 0,-1.34765 q -1.55109,-0.95215 -3.26623,-0.95215 z m -0.64131,15.23438 q -2.9232,0 -3.20657,-5.72754 l 6.21926,0 q 0,2.62207 -0.8203,4.1748 -0.80537,1.55274 -2.19239,1.55274 z"
         style="font-style:normal;font-variant:normal;font-weight:300;font-stretch:condensed;font-size:30.27100945px;line-height:125%;font-family:'Open Sans';-inkscape-font-specification:'Open Sans, Light Condensed';text-align:start;letter-spacing:0px;word-spacing:0px;writing-mode:lr-tb;text-anchor:start;fill:#ffffff;fill-opacity:1;stroke:none;stroke-width:1px;stroke-linecap:butt;stroke-linejoin:miter;stroke-opacity:1"
         id="path4188" /><path
         inkscape:connector-curvature="0"
         d="m 429.12035,506.38148 q 0,-2.00684 -1.07384,-3.14942 -1.07382,-1.12793 -3.10217,-1.12793 -1.10365,0 -1.93886,0.27832 -0.8352,0.27832 -1.29753,0.61524 l 0,1.62597 q 0.55182,-0.54199 1.46159,-0.8789 0.90978,-0.32227 1.86429,-0.32227 1.2528,0 1.96869,0.80566 0.71589,0.80567 0.71589,2.15333 0,1.05468 -0.52201,1.77246 -0.50709,0.73242 -1.95377,1.65527 -1.65549,1.02539 -2.26698,1.64062 -0.59657,0.61524 -0.9396,1.37695 -0.3281,0.76172 -0.3281,1.81642 0,1.71386 1.17822,2.82715 1.17823,1.12792 2.99777,1.12792 1.95377,0 3.26623,-0.9082 l -0.7308,-1.21583 q -1.22297,0.80568 -2.59508,0.80568 -1.25281,0 -1.99851,-0.73243 -0.74572,-0.71777 -0.74572,-1.90429 0,-1.0547 0.50708,-1.77246 0.50709,-0.70313 2.14766,-1.71387 1.61075,-1.04004 2.20732,-1.66992 0.59657,-0.61524 0.87994,-1.37696 0.29829,-0.74707 0.29829,-1.72851 z"
         style="font-style:normal;font-variant:normal;font-weight:300;font-stretch:condensed;font-size:30.27100945px;line-height:125%;font-family:'Open Sans';-inkscape-font-specification:'Open Sans, Light Condensed';text-align:start;letter-spacing:0px;word-spacing:0px;writing-mode:lr-tb;text-anchor:start;fill:#ffffff;fill-opacity:1;stroke:none;stroke-width:1px;stroke-linecap:butt;stroke-linejoin:miter;stroke-opacity:1"
         id="path4190" /><path
         inkscape:connector-curvature="0"
         d="m 437.57673,502.10413 q -1.22297,0 -2.23714,0.65918 -0.99926,0.67383 -1.52126,1.83105 l -0.13423,0 0.1044,-1.74316 0,-7.66113 -1.41686,0 0,23.10059 1.16332,0 0.14914,-2.18263 0.13423,0 q 0.59657,1.20118 1.52126,1.84571 0.9396,0.64453 2.04326,0.64453 4.74274,0 4.74274,-8.21777 0,-3.96973 -1.16332,-6.12305 -1.16331,-2.15332 -3.38554,-2.15332 z m -0.28337,15.17579 q -1.7748,0 -2.63983,-1.53809 -0.86503,-1.53808 -0.86503,-4.81934 l 0,-0.4541 q 0,-3.66211 0.87995,-5.39062 0.87993,-1.71387 2.68457,-1.71387 1.6704,0 2.47577,1.69922 0.82029,1.71387 0.82029,5.31738 0,3.44239 -0.76063,5.1709 -0.76063,1.72852 -2.59509,1.72852 z"
         style="font-style:normal;font-variant:normal;font-weight:300;font-stretch:condensed;font-size:30.27100945px;line-height:125%;font-family:'Open Sans';-inkscape-font-specification:'Open Sans, Light Condensed';text-align:start;letter-spacing:0px;word-spacing:0px;writing-mode:lr-tb;text-anchor:start;fill:#ffffff;fill-opacity:1;stroke:none;stroke-width:1px;stroke-linecap:butt;stroke-linejoin:miter;stroke-opacity:1"
         id="path4192" /><path
         inkscape:connector-curvature="0"
         d="m 450.26879,502.10413 q -2.56525,0 -3.95228,2.13867 -1.37212,2.15333 -1.37212,5.99122 0,4.07226 1.22297,6.21093 1.2379,2.15332 3.54961,2.15332 2.01343,0 3.17674,-1.88964 1.16332,-1.875 1.16332,-5.06837 l 0,-1.28906 -7.66595,0 q 0.0299,-3.47168 0.99926,-5.2002 0.96943,-1.72851 2.93812,-1.72851 1.52126,0 3.20656,0.98144 l 0,-1.34765 q -1.55108,-0.95215 -3.26623,-0.95215 z m -0.64131,15.23438 q -2.9232,0 -3.20657,-5.72754 l 6.21926,0 q 0,2.62207 -0.82029,4.1748 -0.80537,1.55274 -2.1924,1.55274 z"
         style="font-style:normal;font-variant:normal;font-weight:300;font-stretch:condensed;font-size:30.27100945px;line-height:125%;font-family:'Open Sans';-inkscape-font-specification:'Open Sans, Light Condensed';text-align:start;letter-spacing:0px;word-spacing:0px;writing-mode:lr-tb;text-anchor:start;fill:#ffffff;fill-opacity:1;stroke:none;stroke-width:1px;stroke-linecap:butt;stroke-linejoin:miter;stroke-opacity:1"
         id="path4194" /><path
         inkscape:connector-curvature="0"
         d="m 459.11298,510.26331 0.90977,1.61133 3.99703,6.41602 1.53617,0 -3.72857,-5.84474 4.05668,-10.04882 -1.49142,0 -3.51977,8.75977 -1.78973,-2.31446 0,-6.44531 -1.41685,0 0,22.79297 1.41685,0 0,-12.26074 -0.10439,-2.66602 0.13423,0 z"
         style="font-style:normal;font-variant:normal;font-weight:300;font-stretch:condensed;font-size:30.27100945px;line-height:125%;font-family:'Open Sans';-inkscape-font-specification:'Open Sans, Light Condensed';text-align:start;letter-spacing:0px;word-spacing:0px;writing-mode:lr-tb;text-anchor:start;fill:#ffffff;fill-opacity:1;stroke:none;stroke-width:1px;stroke-linecap:butt;stroke-linejoin:miter;stroke-opacity:1"
         id="path4196" /><path
         inkscape:connector-curvature="0"
         d="m 471.2532,503.39319 q 0.65623,0 1.16331,0.17579 l 0,-1.17188 q -0.65622,-0.29297 -1.68531,-0.29297 -2.50561,0 -2.50561,3.67675 l 0,11.2793 -1.46159,0 0,0.82032 1.43177,0.41016 0.46235,3.77929 0.98434,0 0,-3.77929 2.56526,0 0,-1.23048 -2.56526,0 0,-10.88378 q 0,-1.61133 0.35793,-2.19727 0.35795,-0.58594 1.25281,-0.58594 z"
         style="font-style:normal;font-variant:normal;font-weight:300;font-stretch:condensed;font-size:30.27100945px;line-height:125%;font-family:'Open Sans';-inkscape-font-specification:'Open Sans, Light Condensed';text-align:start;letter-spacing:0px;word-spacing:0px;writing-mode:lr-tb;text-anchor:start;fill:#ffffff;fill-opacity:1;stroke:none;stroke-width:1px;stroke-linecap:butt;stroke-linejoin:miter;stroke-opacity:1"
         id="path4198" /><path
         inkscape:connector-curvature="0"
         d="m 486.95796,502.3971 -0.17897,2.22656 -0.0596,0 q -1.16331,-2.51953 -3.51977,-2.51953 -1.58091,0 -2.55034,1.23047 -0.95452,1.24512 -0.95452,3.32519 0,2.27051 1.38703,3.58887 1.38704,1.33301 3.89263,1.45019 l 1.74497,0.0879 0,1.31836 q 0,2.22656 -0.56674,3.23731 -0.56673,1.02538 -1.87919,1.02538 -1.38703,0 -2.83372,-0.89356 l -0.61149,1.09864 q 1.68532,1.02539 3.53469,1.02539 1.99852,0 2.87846,-1.24512 0.87995,-1.23046 0.87995,-4.13086 l 0,-10.82519 -1.16332,0 z m -3.4452,0.89355 q 1.52126,0 2.35645,1.46485 0.85011,1.47949 0.85011,4.1748 l 0,1.65528 -1.6853,-0.0879 q -1.95378,-0.10253 -2.90829,-1.06933 -0.9396,-0.95214 -0.9396,-2.79785 0,-1.72852 0.62639,-2.53418 0.6264,-0.80567 1.70024,-0.80567 z"
         style="font-style:normal;font-variant:normal;font-weight:300;font-stretch:condensed;font-size:30.27100945px;line-height:125%;font-family:'Open Sans';-inkscape-font-specification:'Open Sans, Light Condensed';text-align:start;letter-spacing:0px;word-spacing:0px;writing-mode:lr-tb;text-anchor:start;fill:#ffffff;fill-opacity:1;stroke:none;stroke-width:1px;stroke-linecap:butt;stroke-linejoin:miter;stroke-opacity:1"
         id="path4200" /><path
         inkscape:connector-curvature="0"
         d="m 493.74395,518.29066 0,-10.3711 q 0,-2.3584 0.56675,-3.44238 0.58165,-1.08399 1.7748,-1.08399 1.83446,0 2.68457,1.4502 0.86504,1.46484 0.86504,4.71679 l 0,8.73048 1.40194,0 0,-15.89356 -1.19315,0 -0.17897,2.22656 -0.11932,0 q -0.522,-1.21582 -1.44668,-1.87499 -0.92469,-0.64454 -2.01343,-0.64454 -1.95377,0 -2.86354,1.3623 -0.89486,1.36231 -0.89486,4.45313 l 0,10.3711 1.41685,0 z"
         style="font-style:normal;font-variant:normal;font-weight:300;font-stretch:condensed;font-size:30.27100945px;line-height:125%;font-family:'Open Sans';-inkscape-font-specification:'Open Sans, Light Condensed';text-align:start;letter-spacing:0px;word-spacing:0px;writing-mode:lr-tb;text-anchor:start;fill:#ffffff;fill-opacity:1;stroke:none;stroke-width:1px;stroke-linecap:butt;stroke-linejoin:miter;stroke-opacity:1"
         id="path4202" /><path
         inkscape:connector-curvature="0"
         d="m 509.52327,517.06018 -2.53543,0 0,-14.66308 -1.40194,0 0,14.66308 -2.05817,0 0,0.79103 2.05817,0.60058 0,1.20117 q 0,3.03223 0.7308,4.36524 0.7308,1.333 2.53543,1.333 1.044,0 1.89411,-0.36621 l -0.49217,-1.28906 q -0.79045,0.36621 -1.43177,0.36621 -0.7308,0 -1.10365,-0.4248 -0.37286,-0.42481 -0.55184,-1.37696 -0.17897,-0.95214 -0.17897,-2.63672 l 0,-1.333 2.53543,0 0,-1.23048 z"
         style="font-style:normal;font-variant:normal;font-weight:300;font-stretch:condensed;font-size:30.27100945px;line-height:125%;font-family:'Open Sans';-inkscape-font-specification:'Open Sans, Light Condensed';text-align:start;letter-spacing:0px;word-spacing:0px;writing-mode:lr-tb;text-anchor:start;fill:#ffffff;fill-opacity:1;stroke:none;stroke-width:1px;stroke-linecap:butt;stroke-linejoin:miter;stroke-opacity:1"
         id="path4204" /><path
         inkscape:connector-curvature="0"
         d="m 517.14447,518.56897 q 4.74275,0 4.74275,-8.18847 0,-4.04297 -1.17823,-6.167 -1.17822,-2.10937 -3.40046,-2.10937 -1.16331,0 -2.11783,0.62989 -0.95452,0.62988 -1.58091,1.86034 l -0.11931,0 -0.19389,-2.19726 -1.16331,0 0,22.79297 1.41685,0 0,-7.0752 -0.0596,-1.91894 0.11931,0 q 1.28263,2.37304 3.53468,2.37304 z m -0.0596,-1.28905 q -1.86429,0 -2.69949,-1.61134 -0.8352,-1.61132 -0.8352,-5.28808 l 0,-0.36621 q 0,-6.65039 3.59434,-6.65039 1.64058,0 2.44595,1.71387 0.82028,1.71386 0.82028,5.30273 0,3.44239 -0.79045,5.1709 -0.79046,1.72852 -2.53543,1.72852 z"
         style="font-style:normal;font-variant:normal;font-weight:300;font-stretch:condensed;font-size:30.27100945px;line-height:125%;font-family:'Open Sans';-inkscape-font-specification:'Open Sans, Light Condensed';text-align:start;letter-spacing:0px;word-spacing:0px;writing-mode:lr-tb;text-anchor:start;fill:#ffffff;fill-opacity:1;stroke:none;stroke-width:1px;stroke-linecap:butt;stroke-linejoin:miter;stroke-opacity:1"
         id="path4206" /><path
         inkscape:connector-curvature="0"
         d="m 531.70083,502.3971 -0.17897,2.22656 -0.0596,0 q -1.16331,-2.51953 -3.51977,-2.51953 -1.58091,0 -2.55034,1.23047 -0.95451,1.24512 -0.95451,3.32519 0,2.27051 1.38702,3.58887 1.38704,1.33301 3.89263,1.45019 l 1.74497,0.0879 0,1.31836 q 0,2.22656 -0.56674,3.23731 -0.56673,1.02538 -1.87919,1.02538 -1.38703,0 -2.83372,-0.89356 l -0.61149,1.09864 q 1.68532,1.02539 3.53469,1.02539 1.99852,0 2.87846,-1.24512 0.87995,-1.23046 0.87995,-4.13086 l 0,-10.82519 -1.16332,0 z m -3.4452,0.89355 q 1.52126,0 2.35645,1.46485 0.85011,1.47949 0.85011,4.1748 l 0,1.65528 -1.6853,-0.0879 q -1.95377,-0.10253 -2.90829,-1.06933 -0.9396,-0.95214 -0.9396,-2.79785 0,-1.72852 0.6264,-2.53418 0.62639,-0.80567 1.70023,-0.80567 z"
         style="font-style:normal;font-variant:normal;font-weight:300;font-stretch:condensed;font-size:30.27100945px;line-height:125%;font-family:'Open Sans';-inkscape-font-specification:'Open Sans, Light Condensed';text-align:start;letter-spacing:0px;word-spacing:0px;writing-mode:lr-tb;text-anchor:start;fill:#ffffff;fill-opacity:1;stroke:none;stroke-width:1px;stroke-linecap:butt;stroke-linejoin:miter;stroke-opacity:1"
         id="path4208" /><path
         inkscape:connector-curvature="0"
         d="m 538.48681,518.29066 0,-10.3711 q 0,-2.3584 0.56675,-3.44238 0.58166,-1.08399 1.7748,-1.08399 1.83445,0 2.68457,1.4502 0.86503,1.46484 0.86503,4.71679 l 0,8.73048 1.40194,0 0,-15.89356 -1.19314,0 -0.17898,2.22656 -0.11931,0 q -0.522,-1.21582 -1.44669,-1.87499 -0.92469,-0.64454 -2.01342,-0.64454 -1.95377,0 -2.86355,1.3623 -0.89485,1.36231 -0.89485,4.45313 l 0,10.3711 1.41685,0 z"
         style="font-style:normal;font-variant:normal;font-weight:300;font-stretch:condensed;font-size:30.27100945px;line-height:125%;font-family:'Open Sans';-inkscape-font-specification:'Open Sans, Light Condensed';text-align:start;letter-spacing:0px;word-spacing:0px;writing-mode:lr-tb;text-anchor:start;fill:#ffffff;fill-opacity:1;stroke:none;stroke-width:1px;stroke-linecap:butt;stroke-linejoin:miter;stroke-opacity:1"
         id="path4210" /><path
         inkscape:connector-curvature="0"
         d="m 554.72847,502.10413 q -2.56525,0 -3.95228,2.13867 -1.37212,2.15333 -1.37212,5.99122 0,4.07226 1.22297,6.21093 1.23788,2.15332 3.5496,2.15332 2.01343,0 3.17674,-1.88964 1.16332,-1.875 1.16332,-5.06837 l 0,-1.28906 -7.66594,0 q 0.0299,-3.47168 0.99925,-5.2002 0.96943,-1.72851 2.93812,-1.72851 1.52125,0 3.20657,0.98144 l 0,-1.34765 q -1.55108,-0.95215 -3.26623,-0.95215 z m -0.64131,15.23438 q -2.9232,0 -3.20658,-5.72754 l 6.21926,0 q 0,2.62207 -0.82028,4.1748 -0.80537,1.55274 -2.1924,1.55274 z"
         style="font-style:normal;font-variant:normal;font-weight:300;font-stretch:condensed;font-size:30.27100945px;line-height:125%;font-family:'Open Sans';-inkscape-font-specification:'Open Sans, Light Condensed';text-align:start;letter-spacing:0px;word-spacing:0px;writing-mode:lr-tb;text-anchor:start;fill:#ffffff;fill-opacity:1;stroke:none;stroke-width:1px;stroke-linecap:butt;stroke-linejoin:miter;stroke-opacity:1"
         id="path4212" /><path
         inkscape:connector-curvature="0"
         d="m 569.43399,502.3971 0,10.95703 q 0,3.95508 -2.3863,3.95508 -1.81954,0 -2.66965,-1.47949 -0.83521,-1.4795 -0.83521,-4.70216 l 0,-8.73046 -1.41685,0 0,15.89356 1.19314,0 0.11932,-2.21192 0.13423,0 q 0.50708,1.20118 1.4616,1.86035 0.95451,0.65918 2.04326,0.65918 1.87919,0 2.81879,-1.24512 0.93961,-1.23046 0.93961,-3.96972 l 0,-10.98633 -1.40194,0 z"
         style="font-style:normal;font-variant:normal;font-weight:300;font-stretch:condensed;font-size:30.27100945px;line-height:125%;font-family:'Open Sans';-inkscape-font-specification:'Open Sans, Light Condensed';text-align:start;letter-spacing:0px;word-spacing:0px;writing-mode:lr-tb;text-anchor:start;fill:#ffffff;fill-opacity:1;stroke:none;stroke-width:1px;stroke-linecap:butt;stroke-linejoin:miter;stroke-opacity:1"
         id="path4214" /><path
         inkscape:connector-curvature="0"
         d="m 597.30878,523.81312 0,-14.45801 q 0,-7.25098 -5.27966,-7.25098 -2.63983,0 -4.02686,1.875 -1.38703,1.875 -1.38703,5.37598 l 0,14.45801 1.47652,0 0,-14.6338 q 0,-2.78319 1.01417,-4.24804 1.02909,-1.4502 2.9232,-1.4502 1.87921,0 2.84864,1.4502 0.96943,1.46485 0.96943,4.30664 l 0,14.5752 1.46159,0 z"
         style="font-style:normal;font-variant:normal;font-weight:300;font-stretch:condensed;font-size:30.27100945px;line-height:125%;font-family:'Open Sans';-inkscape-font-specification:'Open Sans, Light Condensed';text-align:start;letter-spacing:0px;word-spacing:0px;writing-mode:lr-tb;text-anchor:start;fill:#ffffff;fill-opacity:1;stroke:none;stroke-width:1px;stroke-linecap:butt;stroke-linejoin:miter;stroke-opacity:1"
         id="path4216" /><path
         inkscape:connector-curvature="0"
         d="m 608.98667,502.3971 0,10.95703 q 0,3.95508 -2.38629,3.95508 -1.81954,0 -2.66965,-1.47949 -0.83521,-1.4795 -0.83521,-4.70216 l 0,-8.73046 -1.41686,0 0,15.89356 1.19315,0 0.11931,-2.21192 0.13423,0 q 0.50708,1.20118 1.4616,1.86035 0.95452,0.65918 2.04325,0.65918 1.87921,0 2.81881,-1.24512 0.9396,-1.23046 0.9396,-3.96972 l 0,-10.98633 -1.40194,0 z"
         style="font-style:normal;font-variant:normal;font-weight:300;font-stretch:condensed;font-size:30.27100945px;line-height:125%;font-family:'Open Sans';-inkscape-font-specification:'Open Sans, Light Condensed';text-align:start;letter-spacing:0px;word-spacing:0px;writing-mode:lr-tb;text-anchor:start;fill:#ffffff;fill-opacity:1;stroke:none;stroke-width:1px;stroke-linecap:butt;stroke-linejoin:miter;stroke-opacity:1"
         id="path4218" /><path
         inkscape:connector-curvature="0"
         d="m 618.81518,517.06018 -2.53543,0 0,-14.66308 -1.40195,0 0,14.66308 -2.05816,0 0,0.79103 2.05816,0.60058 0,1.20117 q 0,3.03223 0.7308,4.36524 0.73081,1.333 2.53543,1.333 1.04401,0 1.89412,-0.36621 l -0.49218,-1.28906 q -0.79045,0.36621 -1.43176,0.36621 -0.73081,0 -1.10366,-0.4248 -0.37286,-0.42481 -0.55182,-1.37696 -0.17898,-0.95214 -0.17898,-2.63672 l 0,-1.333 2.53543,0 0,-1.23048 z"
         style="font-style:normal;font-variant:normal;font-weight:300;font-stretch:condensed;font-size:30.27100945px;line-height:125%;font-family:'Open Sans';-inkscape-font-specification:'Open Sans, Light Condensed';text-align:start;letter-spacing:0px;word-spacing:0px;writing-mode:lr-tb;text-anchor:start;fill:#ffffff;fill-opacity:1;stroke:none;stroke-width:1px;stroke-linecap:butt;stroke-linejoin:miter;stroke-opacity:1"
         id="path4220" /><path
         inkscape:connector-curvature="0"
         d="m 627.68918,502.3971 -0.17897,2.22656 -0.0596,0 q -1.16331,-2.51953 -3.51977,-2.51953 -1.58091,0 -2.55034,1.23047 -0.95452,1.24512 -0.95452,3.32519 0,2.27051 1.38703,3.58887 1.38703,1.33301 3.89263,1.45019 l 1.74497,0.0879 0,1.31836 q 0,2.22656 -0.56674,3.23731 -0.56675,1.02538 -1.8792,1.02538 -1.38703,0 -2.83372,-0.89356 l -0.61148,1.09864 q 1.68532,1.02539 3.53469,1.02539 1.99851,0 2.87846,-1.24512 0.87993,-1.23046 0.87993,-4.13086 l 0,-10.82519 -1.16331,0 z m -3.4452,0.89355 q 1.52126,0 2.35646,1.46485 0.85011,1.47949 0.85011,4.1748 l 0,1.65528 -1.68531,-0.0879 q -1.95378,-0.10253 -2.90828,-1.06933 -0.93961,-0.95214 -0.93961,-2.79785 0,-1.72852 0.6264,-2.53418 0.6264,-0.80567 1.70023,-0.80567 z m -2.52051,19.45313 q 0,0.62988 0.28337,0.9082 0.29829,0.27832 0.67114,0.27832 0.34303,0 0.6264,-0.27832 0.28337,-0.27832 0.28337,-0.9082 0,-0.64453 -0.28337,-0.9375 -0.28337,-0.29297 -0.6264,-0.29297 -0.37285,0 -0.67114,0.29297 -0.28337,0.29297 -0.28337,0.9375 z m 4.54885,0 q 0,0.62988 0.28338,0.9082 0.29828,0.27832 0.64131,0.27832 0.37286,0 0.65623,-0.27832 0.28337,-0.27832 0.28337,-0.9082 0,-0.64453 -0.28337,-0.9375 -0.28337,-0.29297 -0.65623,-0.29297 -0.34303,0 -0.64131,0.29297 -0.28338,0.29297 -0.28338,0.9375 z"
         style="font-style:normal;font-variant:normal;font-weight:300;font-stretch:condensed;font-size:30.27100945px;line-height:125%;font-family:'Open Sans';-inkscape-font-specification:'Open Sans, Light Condensed';text-align:start;letter-spacing:0px;word-spacing:0px;writing-mode:lr-tb;text-anchor:start;fill:#ffffff;fill-opacity:1;stroke:none;stroke-width:1px;stroke-linecap:butt;stroke-linejoin:miter;stroke-opacity:1"
         id="path4222" /><path
         inkscape:connector-curvature="0"
         d="m 634.53486,502.3971 -1.41686,0 0,22.79297 1.41686,0 0,-22.79297 z"
         style="font-style:normal;font-variant:normal;font-weight:300;font-stretch:condensed;font-size:30.27100945px;line-height:125%;font-family:'Open Sans';-inkscape-font-specification:'Open Sans, Light Condensed';text-align:start;letter-spacing:0px;word-spacing:0px;writing-mode:lr-tb;text-anchor:start;fill:#ffffff;fill-opacity:1;stroke:none;stroke-width:1px;stroke-linecap:butt;stroke-linejoin:miter;stroke-opacity:1"
         id="path4224" /><path
         inkscape:connector-curvature="0"
         d="m 640.26194,502.3971 -1.41686,0 0,22.79297 1.41686,0 0,-22.79297 z"
         style="font-style:normal;font-variant:normal;font-weight:300;font-stretch:condensed;font-size:30.27100945px;line-height:125%;font-family:'Open Sans';-inkscape-font-specification:'Open Sans, Light Condensed';text-align:start;letter-spacing:0px;word-spacing:0px;writing-mode:lr-tb;text-anchor:start;fill:#ffffff;fill-opacity:1;stroke:none;stroke-width:1px;stroke-linecap:butt;stroke-linejoin:miter;stroke-opacity:1"
         id="path4226" /><path
         inkscape:connector-curvature="0"
         d="m 649.16577,502.10413 q -2.56526,0 -3.95229,2.13867 -1.37212,2.15333 -1.37212,5.99122 0,4.07226 1.22298,6.21093 1.23789,2.15332 3.5496,2.15332 2.01343,0 3.17674,-1.88964 1.16332,-1.875 1.16332,-5.06837 l 0,-1.28906 -7.66594,0 q 0.0299,-3.47168 0.99925,-5.2002 0.96943,-1.72851 2.93812,-1.72851 1.52126,0 3.20656,0.98144 l 0,-1.34765 q -1.55108,-0.95215 -3.26622,-0.95215 z m -0.64132,15.23438 q -2.9232,0 -3.20657,-5.72754 l 6.21926,0 q 0,2.62207 -0.82028,4.1748 -0.80538,1.55274 -2.19241,1.55274 z"
         style="font-style:normal;font-variant:normal;font-weight:300;font-stretch:condensed;font-size:30.27100945px;line-height:125%;font-family:'Open Sans';-inkscape-font-specification:'Open Sans, Light Condensed';text-align:start;letter-spacing:0px;word-spacing:0px;writing-mode:lr-tb;text-anchor:start;fill:#ffffff;fill-opacity:1;stroke:none;stroke-width:1px;stroke-linecap:butt;stroke-linejoin:miter;stroke-opacity:1"
         id="path4228" /><path
         inkscape:connector-curvature="0"
         d="m 664.09496,502.3971 -3.81805,15.89356 1.43177,0 2.41611,-10.22462 q 0.41761,-1.77246 0.80538,-3.86718 l 0.1193,0 q 0.10441,0.76171 0.2983,1.69922 0.19388,0.9375 2.93811,12.39258 l 1.43177,0 -3.93737,-15.89356 -1.68532,0 z"
         style="font-style:normal;font-variant:normal;font-weight:300;font-stretch:condensed;font-size:30.27100945px;line-height:125%;font-family:'Open Sans';-inkscape-font-specification:'Open Sans, Light Condensed';text-align:start;letter-spacing:0px;word-spacing:0px;writing-mode:lr-tb;text-anchor:start;fill:#ffffff;fill-opacity:1;stroke:none;stroke-width:1px;stroke-linecap:butt;stroke-linejoin:miter;stroke-opacity:1"
         id="path4230" /><path
         inkscape:connector-curvature="0"
         d="m 676.60805,502.10413 q -2.56526,0 -3.95229,2.13867 -1.37211,2.15333 -1.37211,5.99122 0,4.07226 1.22297,6.21093 1.23788,2.15332 3.5496,2.15332 2.01343,0 3.17675,-1.88964 1.16331,-1.875 1.16331,-5.06837 l 0,-1.28906 -7.66595,0 q 0.0299,-3.47168 0.99926,-5.2002 0.96942,-1.72851 2.93811,-1.72851 1.52126,0 3.20658,0.98144 l 0,-1.34765 q -1.55109,-0.95215 -3.26623,-0.95215 z m -0.64132,15.23438 q -2.9232,0 -3.20657,-5.72754 l 6.21926,0 q 0,2.62207 -0.82029,4.1748 -0.80537,1.55274 -2.1924,1.55274 z"
         style="font-style:normal;font-variant:normal;font-weight:300;font-stretch:condensed;font-size:30.27100945px;line-height:125%;font-family:'Open Sans';-inkscape-font-specification:'Open Sans, Light Condensed';text-align:start;letter-spacing:0px;word-spacing:0px;writing-mode:lr-tb;text-anchor:start;fill:#ffffff;fill-opacity:1;stroke:none;stroke-width:1px;stroke-linecap:butt;stroke-linejoin:miter;stroke-opacity:1"
         id="path4232" /><path
         inkscape:connector-curvature="0"
         d="m 688.49475,518.59827 q 0.76063,0 1.41687,-0.20508 l -0.34303,-1.3916 q -0.53692,0.21973 -1.10366,0.21973 -0.82029,0 -1.53618,-0.83496 -0.70096,-0.82031 -1.10365,-2.29981 -0.40268,-1.47949 -0.40268,-3.2666 l 0,-8.42285 -1.41687,0 0,15.89356 1.16332,0 0.14914,-2.78321 0.10441,0 q 1.13348,3.09082 3.07233,3.09082 z"
         style="font-style:normal;font-variant:normal;font-weight:300;font-stretch:condensed;font-size:30.27100945px;line-height:125%;font-family:'Open Sans';-inkscape-font-specification:'Open Sans, Light Condensed';text-align:start;letter-spacing:0px;word-spacing:0px;writing-mode:lr-tb;text-anchor:start;fill:#ffffff;fill-opacity:1;stroke:none;stroke-width:1px;stroke-linecap:butt;stroke-linejoin:miter;stroke-opacity:1"
         id="path4234" /><path
         inkscape:connector-curvature="0"
         d="m 699.66555,502.3971 0,10.95703 q 0,2.15332 -0.58165,3.04688 -0.56675,0.9082 -1.86429,0.9082 -1.71514,0 -2.58017,-1.49414 -0.86503,-1.49414 -0.86503,-4.7168 l 0,-8.70117 -1.41686,0 0,22.79297 1.41686,0 0,-7.39747 q 0,-1.01073 -0.0596,-1.68457 l 0.11932,0 q 0.47726,1.18653 1.43176,1.83106 0.96943,0.65918 2.01344,0.65918 2.05817,0 2.9232,-1.31835 0.86502,-1.31836 0.86502,-3.92579 l 0,-10.95703 -1.40194,0 z"
         style="font-style:normal;font-variant:normal;font-weight:300;font-stretch:condensed;font-size:30.27100945px;line-height:125%;font-family:'Open Sans';-inkscape-font-specification:'Open Sans, Light Condensed';text-align:start;letter-spacing:0px;word-spacing:0px;writing-mode:lr-tb;text-anchor:start;fill:#ffffff;fill-opacity:1;stroke:none;stroke-width:1px;stroke-linecap:butt;stroke-linejoin:miter;stroke-opacity:1"
         id="path4236" /><path
         inkscape:connector-curvature="0"
         d="m 706.72001,518.29066 0,-10.3711 q 0,-2.3584 0.56674,-3.44238 0.58166,-1.08399 1.7748,-1.08399 1.83446,0 2.68458,1.4502 0.86502,1.46484 0.86502,4.71679 l 0,8.73048 1.40194,0 0,-15.89356 -1.19314,0 -0.17897,2.22656 -0.11931,0 q -0.522,-1.21582 -1.44669,-1.87499 -0.92468,-0.64454 -2.01343,-0.64454 -1.95377,0 -2.86354,1.3623 -0.89486,1.36231 -0.89486,4.45313 l 0,10.3711 1.41686,0 z m -0.26845,4.45312 q 0,0.62988 0.28336,0.9082 0.29829,0.27832 0.67114,0.27832 0.34303,0 0.62641,-0.27832 0.28337,-0.27832 0.28337,-0.9082 0,-0.64453 -0.28337,-0.9375 -0.28338,-0.29297 -0.62641,-0.29297 -0.37285,0 -0.67114,0.29297 -0.28336,0.29297 -0.28336,0.9375 z m 4.54885,0 q 0,0.62988 0.28337,0.9082 0.29829,0.27832 0.64132,0.27832 0.37286,0 0.65622,-0.27832 0.28337,-0.27832 0.28337,-0.9082 0,-0.64453 -0.28337,-0.9375 -0.28336,-0.29297 -0.65622,-0.29297 -0.34303,0 -0.64132,0.29297 -0.28337,0.29297 -0.28337,0.9375 z"
         style="font-style:normal;font-variant:normal;font-weight:300;font-stretch:condensed;font-size:30.27100945px;line-height:125%;font-family:'Open Sans';-inkscape-font-specification:'Open Sans, Light Condensed';text-align:start;letter-spacing:0px;word-spacing:0px;writing-mode:lr-tb;text-anchor:start;fill:#ffffff;fill-opacity:1;stroke:none;stroke-width:1px;stroke-linecap:butt;stroke-linejoin:miter;stroke-opacity:1"
         id="path4238" /><path
         inkscape:connector-curvature="0"
         d="m 721.33601,503.39319 q 0.65623,0 1.16332,0.17579 l 0,-1.17188 q -0.65624,-0.29297 -1.68532,-0.29297 -2.5056,0 -2.5056,3.67675 l 0,11.2793 -1.4616,0 0,0.82032 1.43177,0.41016 0.46234,3.77929 0.98434,0 0,-3.77929 2.56527,0 0,-1.23048 -2.56527,0 0,-10.88378 q 0,-1.61133 0.35795,-2.19727 0.35794,-0.58594 1.2528,-0.58594 z"
         style="font-style:normal;font-variant:normal;font-weight:300;font-stretch:condensed;font-size:30.27100945px;line-height:125%;font-family:'Open Sans';-inkscape-font-specification:'Open Sans, Light Condensed';text-align:start;letter-spacing:0px;word-spacing:0px;writing-mode:lr-tb;text-anchor:start;fill:#ffffff;fill-opacity:1;stroke:none;stroke-width:1px;stroke-linecap:butt;stroke-linejoin:miter;stroke-opacity:1"
         id="path4240" /><path
         inkscape:connector-curvature="0"
         d="m 729.64329,502.10413 q -2.56527,0 -3.9523,2.13867 -1.37211,2.15333 -1.37211,5.99122 0,4.07226 1.22297,6.21093 1.23789,2.15332 3.54961,2.15332 2.01342,0 3.17674,-1.88964 1.16331,-1.875 1.16331,-5.06837 l 0,-1.28906 -7.66594,0 q 0.0299,-3.47168 0.99926,-5.2002 0.96942,-1.72851 2.93811,-1.72851 1.52126,0 3.20657,0.98144 l 0,-1.34765 q -1.55109,-0.95215 -3.26622,-0.95215 z m -0.64133,15.23438 q -2.9232,0 -3.20656,-5.72754 l 6.21926,0 q 0,2.62207 -0.82029,4.1748 -0.80538,1.55274 -2.19241,1.55274 z"
         style="font-style:normal;font-variant:normal;font-weight:300;font-stretch:condensed;font-size:30.27100945px;line-height:125%;font-family:'Open Sans';-inkscape-font-specification:'Open Sans, Light Condensed';text-align:start;letter-spacing:0px;word-spacing:0px;writing-mode:lr-tb;text-anchor:start;fill:#ffffff;fill-opacity:1;stroke:none;stroke-width:1px;stroke-linecap:butt;stroke-linejoin:miter;stroke-opacity:1"
         id="path4242" /><path
         inkscape:connector-curvature="0"
         d="m 744.34876,502.3971 0,10.95703 q 0,3.95508 -2.38628,3.95508 -1.81954,0 -2.66966,-1.47949 -0.8352,-1.4795 -0.8352,-4.70216 l 0,-8.73046 -1.41686,0 0,15.89356 1.19314,0 0.11932,-2.21192 0.13422,0 q 0.50709,1.20118 1.46161,1.86035 0.95452,0.65918 2.04325,0.65918 1.87921,0 2.81881,-1.24512 0.9396,-1.23046 0.9396,-3.96972 l 0,-10.98633 -1.40195,0 z"
         style="font-style:normal;font-variant:normal;font-weight:300;font-stretch:condensed;font-size:30.27100945px;line-height:125%;font-family:'Open Sans';-inkscape-font-specification:'Open Sans, Light Condensed';text-align:start;letter-spacing:0px;word-spacing:0px;writing-mode:lr-tb;text-anchor:start;fill:#ffffff;fill-opacity:1;stroke:none;stroke-width:1px;stroke-linecap:butt;stroke-linejoin:miter;stroke-opacity:1"
         id="path4244" /></g><g
       id="g4348"><path
         id="path160"
         transform="matrix(0.8000001,0,0,-0.80000005,236.86233,594.59069)"
         d="M 601.39648 0 C 580.26399 0 563.12695 17.129954 563.12695 38.267578 C 563.12695 59.401452 580.26399 76.535156 601.39648 76.535156 C 622.53273 76.535156 639.66602 59.401452 639.66602 38.267578 C 639.66602 17.129954 622.53273 0 601.39648 0 z M 601.39648 4.7851562 C 619.88773 4.7851562 634.87891 19.771579 634.87891 38.267578 C 634.87891 56.758827 619.88773 71.751953 601.39648 71.751953 C 582.90524 71.751953 567.91016 56.758827 567.91016 38.267578 C 567.91016 19.771579 582.90524 4.7851562 601.39648 4.7851562 z "
         style="fill:#656263;fill-opacity:1;fill-rule:nonzero;stroke:none" /><path
         d="m 744.76629,563.97589 c 0,-14.793 -11.994,-26.7871 -26.787,-26.7871 -14.793,0 -26.789,11.9941 -26.789,26.7871 0,14.7968 11.996,26.7871 26.789,26.7871 14.793,0 26.787,-11.9903 26.787,-26.7871"
         style="fill:#30ae41;fill-opacity:1;fill-rule:nonzero;stroke:none"
         id="path162"
         inkscape:connector-curvature="0" /><path
         id="path164"
         transform="matrix(0.8000001,0,0,-0.80000005,236.86233,594.59069)"
         d="M 519.07031 0 C 497.93532 0 480.80078 17.129954 480.80078 38.267578 C 480.80078 59.401452 497.93532 76.535156 519.07031 76.535156 C 540.20406 76.535156 557.33789 59.401452 557.33789 38.267578 C 557.33789 17.129954 540.20406 0 519.07031 0 z M 519.07031 4.7851562 C 537.56031 4.7851562 552.55273 19.771579 552.55273 38.267578 C 552.55273 56.758827 537.56031 71.751953 519.07031 71.751953 C 500.57656 71.751953 485.58398 56.758827 485.58398 38.267578 C 485.58398 19.771579 500.57656 4.7851562 519.07031 4.7851562 z "
         style="fill:#656263;fill-opacity:1;fill-rule:nonzero;stroke:none" /><path
         d="m 678.90429,563.97589 c 0,-14.793 -11.994,-26.7871 -26.786,-26.7871 -14.795,0 -26.789,11.9941 -26.789,26.7871 0,14.7968 11.994,26.7871 26.789,26.7871 14.792,0 26.786,-11.9903 26.786,-26.7871"
         style="fill:#30ae41;fill-opacity:1;fill-rule:nonzero;stroke:none"
         id="path166"
         inkscape:connector-curvature="0" /><g
         id="g4310"><path
           inkscape:connector-curvature="0"
           id="path168"
           style="fill:#ffffff;fill-opacity:1;fill-rule:nonzero;stroke:none"
           d="m 634.55229,581.10789 c -1.155,-0.693 -1.776,-2.7359 -1.413,-3.8141 0,-0.002 0.191,-0.5718 0.191,-0.5718 l 1.161,-3.6903 0.799,-2.0699 c 0.252,-0.5488 0.491,-1.068 0.552,-1.4469 0.119,-0.75 0.431,-1.7332 1.24,-2.1601 0.355,-0.186 0.937,-0.3309 1.712,0.041 l 10e-4,0 c 0.64,0.3043 1.091,0.8652 1.305,1.6191 0.275,0.961 0.114,2.1418 -0.395,2.9391 -0.276,0.4301 -0.557,1.2867 -0.803,2.0449 l -0.736,1.9102 c -0.03,0.0879 0.033,0.4238 0.075,0.6488 0.169,0.8859 0.45,2.3711 -1.038,3.9512 -1.188,1.2617 -2.251,0.8398 -2.651,0.5988" /><path
           inkscape:connector-curvature="0"
           id="path170"
           style="fill:#ffffff;fill-opacity:1;fill-rule:nonzero;stroke:none"
           d="m 648.44829,587.46999 c -2.36,0.1617 -3.041,-2.2949 -3.643,-4.4609 l -0.257,-0.9063 c -0.424,-1.4437 -0.306,-2.6508 -0.201,-3.7168 0.091,-0.9301 0.177,-1.807 -0.073,-2.8441 -0.466,-1.916 -0.36,-4.4121 0.739,-5.4731 0.467,-0.4507 1.084,-0.6109 1.689,-0.441 0.987,0.275 1.484,0.652 1.756,1.2379 0.199,0.4281 0.278,0.9711 0.339,1.6684 l 0.005,3.5629 c 0.075,0.6539 0.634,2.191 1.127,3.5468 l 0.789,2.2551 c 0.557,1.7328 0.467,3.3891 -0.239,4.4262 -0.469,0.6937 -1.172,1.0879 -2.031,1.1449 z m -1.746,-17.8422 c 0,0 -10e-4,0 -0.002,0 l 0.002,0" /><path
           inkscape:connector-curvature="0"
           id="path172"
           style="fill:#ffffff;fill-opacity:1;fill-rule:nonzero;stroke:none"
           d="m 663.23529,584.57509 c -2.029,0.7289 -3.693,-0.9102 -5.512,-4.8242 -0.743,-1.5981 -0.97,-2.4981 -1.229,-3.2149 -0.381,-1.0531 -0.31,-1.6519 -1.244,-2.6781 -1.974,-2.1641 -2.65,-3.9371 -2.096,-5.3078 0.308,-0.7602 1.001,-1.2031 1.81,-1.1531 l 10e-4,0 c 3.115,0.198 3.779,2.7039 4.137,4.0507 l 0.267,0.8364 c 0.18,0.3008 0.486,0.584 0.841,0.9136 0.619,0.5692 0.807,1.075 1.601,2.2782 0.551,0.834 0.857,1.525 1.381,2.3179 l 0.924,1.445 c 0.896,1.4613 1.173,2.7171 0.813,3.7293 -0.184,0.5226 -0.626,1.2238 -1.694,1.607" /><path
           inkscape:connector-curvature="0"
           id="path174"
           style="fill:#ffffff;fill-opacity:1;fill-rule:nonzero;stroke:none"
           d="m 672.38029,550.88169 c 0.228,0.8653 -0.017,1.6891 -0.68,2.2672 -1.436,1.252 -3.843,1.061 -5.366,0.4199 l -2.148,-1.025 c -1.273,-0.4668 -2.407,-1 -3.329,-1 -0.097,0.002 -0.393,0.002 -0.786,0.4063 -0.18,0.1859 -0.327,0.4098 -0.457,0.6406 0,0.004 10e-4,0.0102 10e-4,0.016 0.029,0.9551 -0.84,2.0192 -0.111,3.6953 1.409,3.2278 1.331,6.5547 -2.169,7.4547 -1.718,0.4434 -1.71,1.5141 -3.362,2.4223 -1.653,0.9059 -2.537,-0.2371 -4.103,-0.3359 -1.568,-0.1043 -2.258,2.1308 -3.771,2.1437 -1.516,0.0121 -3.187,-2.8687 -4.41,-2.4918 -2.656,0.8199 -3.76,0.2289 -4.266,-1.748 -0.502,-1.9801 -0.123,-3.5371 -1.391,-6.2672 -1.219,-2.625 -0.689,-3.2719 -1.419,-7.2188 -0.725,-3.9472 1.325,-5.5492 3.03,-6.3422 1.706,-0.791 5.079,-0.6039 5.079,-0.6039 1.4,0.0418 5.028,-3.166 7.32,-2.9859 2.295,0.1777 5.206,2.2809 7.266,2.8461 1.229,0.3359 2.402,1.7258 3.329,2.9199 0.361,0.2277 0.934,0.525 1.762,0.7668 l 0.735,0.125 c 0.631,0.0652 1.495,0.157 3.569,0.7871 l 2.236,0.5078 c 1.484,0.266 2.884,0.5141 3.441,2.6" /><path
           inkscape:connector-curvature="0"
           id="path176"
           style="fill:#ffffff;fill-opacity:1;fill-rule:nonzero;stroke:none"
           d="m 668.02229,573.17699 -0.661,-0.625 c -1.14,-0.7441 -3.621,-3.332 -4.413,-4.414 -0.233,-0.3211 -0.665,-0.6371 -1.081,-0.9442 -0.747,-0.55 -1.519,-1.1187 -1.668,-2.0468 l -0.014,-0.093 0.044,-1.6152 0.245,-0.37 c 1.108,-1.7007 2.701,-1.175 4.75,0.1371 1.707,1.0918 2.713,2.4411 3.447,3.4282 0.309,0.4179 0.735,0.9898 0.92,1.0718 1.113,0.311 3.556,2.127 4.025,4.027 0.229,0.932 -0.025,1.8031 -0.714,2.4539 -2.038,1.925 -4.029,-0.1309 -4.88,-1.0098" /></g><g
         id="g4317"><path
           inkscape:connector-curvature="0"
           id="path178"
           style="fill:#ffffff;fill-opacity:1;fill-rule:nonzero;stroke:none"
           d="m 712.55829,571.80989 c 0.35,-0.5282 0.732,-0.995 1.122,-1.4129 0.47,-0.5051 0.918,-0.9942 1.421,-1.3321 0.536,-0.355 1.146,-0.464 1.679,-0.6148 0.629,-0.1774 1.195,-0.2192 1.757,-0.0844 0.522,0.1231 1.09,0.2332 1.499,0.6473 0.472,0.4777 0.82,1.1597 1.019,1.8937 0.168,0.6391 0.245,1.3832 0.213,2.1371 -0.028,0.6582 -0.25,1.3403 -0.43,2.0371 -0.157,0.6192 -0.289,1.2739 -0.565,1.8848 -0.258,0.5781 -0.525,1.191 -0.888,1.7402 -0.344,0.527 -0.88,0.8848 -1.269,1.3051 -0.471,0.5039 -0.955,0.9141 -1.458,1.25 -0.535,0.3571 -1.03,0.6969 -1.563,0.8508 -0.628,0.1801 -1.261,0.243 -1.826,0.1082 -0.523,-0.125 -1.004,-0.4281 -1.412,-0.8422 -0.47,-0.4808 -0.783,-1.1289 -0.976,-1.8629 -0.17,-0.6371 -0.26,-1.35 -0.226,-2.1039 0.028,-0.6621 0.015,-1.3851 0.194,-2.084 0.158,-0.6113 0.503,-1.2011 0.777,-1.8121 0.259,-0.582 0.581,-1.1511 0.942,-1.7 l 0.033,-0.084 -0.043,0.079" /><path
           inkscape:connector-curvature="0"
           id="path180"
           style="fill:#ffffff;fill-opacity:1;fill-rule:nonzero;stroke:none"
           d="m 725.08029,571.03169 c 0.214,-0.5918 0.318,-0.7258 0.601,-1.2218 0.344,-0.602 0.706,-1.127 1.117,-1.5668 0.439,-0.4704 0.928,-0.7774 1.411,-1.0473 0.576,-0.3199 1.103,-0.5328 1.683,-0.5328 0.534,0.004 0.982,0.209 1.473,0.516 0.566,0.359 1.018,0.8301 1.378,1.5 0.31,0.582 0.733,1.191 0.875,1.9348 0.121,0.6472 0.106,1.364 0.092,2.0839 -0.013,0.6332 -0.163,1.2782 -0.291,1.934 -0.119,0.6231 -0.112,1.3071 -0.337,1.9242 -0.218,0.5911 -0.688,1.043 -0.971,1.5391 -0.341,0.5988 -0.593,1.2168 -1.006,1.6598 -0.437,0.4691 -0.999,0.709 -1.483,0.9781 -0.571,0.3211 -1.111,0.4461 -1.691,0.4441 -0.536,0 -1.059,-0.016 -1.55,-0.3222 -0.57,-0.3578 -0.957,-0.9438 -1.313,-1.6098 -0.313,-0.584 -0.606,-1.2191 -0.747,-1.9633 -0.124,-0.6476 -0.208,-1.3449 -0.192,-2.0636 0.012,-0.6332 0.074,-1.2891 0.199,-1.9454 0.12,-0.6238 0.058,-0.7777 0.284,-1.3929 l 0.241,-0.4469 c -0.009,-0.006 0.227,-0.4012 0.227,-0.4012" /><path
           inkscape:connector-curvature="0"
           id="path182"
           style="fill:#ffffff;fill-opacity:1;fill-rule:nonzero;stroke:none"
           d="m 705.13729,560.91299 c 0.569,-0.3379 1.103,-0.7129 1.668,-0.8903 0.593,-0.1839 1.211,-0.0648 1.767,-0.0789 0.65,-0.0211 1.237,0.0121 1.787,0.2129 0.563,0.2051 1.149,0.4012 1.549,0.8211 0.339,0.3551 0.634,0.816 0.822,1.316 0.244,0.645 0.309,1.3911 0.248,2.1153 -0.054,0.6367 -0.303,1.2847 -0.569,1.9297 -0.232,0.566 -0.607,1.0761 -0.981,1.605 -0.37,0.518 -0.718,1.077 -1.205,1.5243 -0.444,0.3976 -0.979,0.7007 -1.51,1.0128 -0.568,0.336 -1.107,0.6719 -1.672,0.8461 -0.594,0.1899 -1.19,0.1387 -1.748,0.1539 -0.646,0.018 -1.289,0.1411 -1.841,-0.0582 -0.561,-0.2027 -1.023,-0.625 -1.427,-1.0468 -0.336,-0.3551 -0.659,-0.7602 -0.846,-1.2578 -0.241,-0.6461 -0.367,-1.3813 -0.304,-2.1051 0.054,-0.6391 0.345,-1.2762 0.609,-1.9199 0.234,-0.5692 0.573,-1.0961 0.949,-1.625 0.369,-0.518 0.742,-1.0512 1.23,-1.4961 0.441,-0.4032 0.891,-0.8403 1.421,-1.1532 l 0.066,0.0629 c 0.003,0.008 -0.013,0.0313 -0.013,0.0313" /><path
           inkscape:connector-curvature="0"
           id="path184"
           style="fill:#ffffff;fill-opacity:1;fill-rule:nonzero;stroke:none"
           d="m 705.11829,547.97589 c 0.769,-0.0629 1.536,0.023 2.213,0.2129 0.704,0.1972 1.278,0.63 1.813,1.041 0.548,0.4172 1.11,0.8472 1.412,1.4332 0.258,0.5078 0.231,1.1109 0.256,1.709 0.029,0.705 -0.115,1.3379 -0.417,1.9648 -0.291,0.6133 -0.583,1.268 -1.125,1.7402 -0.518,0.4547 -1.153,0.8809 -1.84,1.145 -0.58,0.2218 -1.243,0.3418 -1.902,0.3918 -0.769,0.0589 -1.507,-0.1188 -2.182,-0.3079 -0.705,-0.196 -1.344,-0.489 -1.878,-0.8992 -0.547,-0.4199 -0.904,-0.9718 -1.203,-1.5617 -0.262,-0.5082 -0.404,-1.0281 -0.427,-1.6269 -0.031,-0.7032 -0.073,-1.4282 0.224,-2.0532 0.293,-0.6109 0.885,-1.0511 1.424,-1.525 0.523,-0.457 1.094,-0.866 1.786,-1.1332 0.58,-0.2207 1.19,-0.4449 1.849,-0.4957 l -0.053,0.041 c -0.004,-0.0351 0.05,-0.0761 0.05,-0.0761" /><path
           inkscape:connector-curvature="0"
           id="path186"
           style="fill:#ffffff;fill-opacity:1;fill-rule:nonzero;stroke:none"
           d="m 734.60729,548.93489 c 0.544,0.38 0.937,0.789 1.324,1.3589 0.355,0.5289 0.685,1.07 0.857,1.7871 0.138,0.5961 0.243,1.2231 0.227,1.9649 -0.015,0.6109 -0.12,1.248 -0.259,1.9672 -0.103,0.5269 -0.092,1.1109 -0.269,1.6988 -0.28,0.9652 -0.214,0.7691 -0.806,1.834 -0.288,0.516 -0.673,1.098 -1.148,1.7051 -0.375,0.4711 -0.723,1.0531 -1.229,1.523 -0.479,0.4442 -1.153,0.711 -1.764,1.1141 -0.528,0.3418 -1.013,0.8379 -1.648,1.1211 -0.54,0.2398 -1.236,0.1226 -1.864,0.3027 -0.495,0.1422 -1.011,0.25 -1.56,0.341 -1.048,0.241 -0.797,0.5281 -2.049,0.6981 -0.595,0.08 -1.292,-0.0371 -2.01,-0.016 -0.705,0.0199 -1.466,0.3281 -2.195,0.232 -0.659,-0.086 -1.951,-0.486 -1.951,-0.486 -0.576,-0.2152 -1.087,-0.6332 -1.555,-1.0082 l 0.061,-0.002 c -0.017,0.0141 -0.063,-0.0188 -0.063,-0.0188 -0.567,-0.914 -0.493,-0.6761 -1.084,-1.8711 -0.268,-0.5449 -0.455,-1.248 -0.76,-1.9871 -0.251,-0.5968 -0.39,-1.291 -0.636,-1.9961 -0.232,-0.6828 -0.485,-1.3898 -0.683,-2.15 -0.179,-0.6859 -0.187,-1.4097 -0.311,-2.1367 -0.129,-0.7211 -0.409,-1.084 -0.463,-1.832 -0.052,-0.6699 0.074,-1.6742 0.095,-2.359 0.022,-0.6781 -0.013,-1.348 0.089,-2.0262 0.104,-0.673 -0.026,-1.4078 0.169,-2.0718 0.192,-0.6539 0.358,-1.361 0.654,-2 0.287,-0.625 0.781,-1.1852 1.176,-1.7871 0.31,-0.4692 0.831,-0.77 1.214,-1.2192 0.836,-0.7457 0.797,-0.5308 1.977,-0.8527 1.748,-0.291 2.618,-0.0332 4.33,1.1929 2.17,1.559 1.462,2.102 2.067,3.4649 0.601,1.3633 0.284,1.2769 0.747,1.9242 0.459,0.6438 0.945,0.2598 1.902,0.125 0.953,-0.1391 1.887,-0.1332 3.085,-0.0551 1.198,0.0739 2.164,0.4489 3.25,0.984 1.083,0.536 1.083,0.536 1.083,0.536" /></g><g
         id="g4324"><path
           d="m 634.55229,581.10789 c -1.155,-0.693 -1.776,-2.7359 -1.413,-3.8141 0,-0.002 0.191,-0.5718 0.191,-0.5718 l 1.161,-3.6903 0.799,-2.0699 c 0.252,-0.5488 0.491,-1.068 0.552,-1.4469 0.119,-0.75 0.431,-1.7332 1.24,-2.1601 0.355,-0.186 0.937,-0.3309 1.712,0.041 l 10e-4,0 c 0.64,0.3043 1.091,0.8652 1.305,1.6191 0.275,0.961 0.114,2.1418 -0.395,2.9391 -0.276,0.4301 -0.557,1.2867 -0.803,2.0449 l -0.736,1.9102 c -0.03,0.0879 0.033,0.4238 0.075,0.6488 0.169,0.8859 0.45,2.3711 -1.038,3.9512 -1.188,1.2617 -2.251,0.8398 -2.651,0.5988"
           style="fill:#ffffff;fill-opacity:1;fill-rule:nonzero;stroke:none"
           id="path4326"
           inkscape:connector-curvature="0" /><path
           d="m 648.44829,587.46999 c -2.36,0.1617 -3.041,-2.2949 -3.643,-4.4609 l -0.257,-0.9063 c -0.424,-1.4437 -0.306,-2.6508 -0.201,-3.7168 0.091,-0.9301 0.177,-1.807 -0.073,-2.8441 -0.466,-1.916 -0.36,-4.4121 0.739,-5.4731 0.467,-0.4507 1.084,-0.6109 1.689,-0.441 0.987,0.275 1.484,0.652 1.756,1.2379 0.199,0.4281 0.278,0.9711 0.339,1.6684 l 0.005,3.5629 c 0.075,0.6539 0.634,2.191 1.127,3.5468 l 0.789,2.2551 c 0.557,1.7328 0.467,3.3891 -0.239,4.4262 -0.469,0.6937 -1.172,1.0879 -2.031,1.1449 z m -1.746,-17.8422 c 0,0 -10e-4,0 -0.002,0 l 0.002,0"
           style="fill:#ffffff;fill-opacity:1;fill-rule:nonzero;stroke:none"
           id="path4328"
           inkscape:connector-curvature="0" /><path
           d="m 663.23529,584.57509 c -2.029,0.7289 -3.693,-0.9102 -5.512,-4.8242 -0.743,-1.5981 -0.97,-2.4981 -1.229,-3.2149 -0.381,-1.0531 -0.31,-1.6519 -1.244,-2.6781 -1.974,-2.1641 -2.65,-3.9371 -2.096,-5.3078 0.308,-0.7602 1.001,-1.2031 1.81,-1.1531 l 10e-4,0 c 3.115,0.198 3.779,2.7039 4.137,4.0507 l 0.267,0.8364 c 0.18,0.3008 0.486,0.584 0.841,0.9136 0.619,0.5692 0.807,1.075 1.601,2.2782 0.551,0.834 0.857,1.525 1.381,2.3179 l 0.924,1.445 c 0.896,1.4613 1.173,2.7171 0.813,3.7293 -0.184,0.5226 -0.626,1.2238 -1.694,1.607"
           style="fill:#ffffff;fill-opacity:1;fill-rule:nonzero;stroke:none"
           id="path4330"
           inkscape:connector-curvature="0" /><path
           d="m 672.38029,550.88169 c 0.228,0.8653 -0.017,1.6891 -0.68,2.2672 -1.436,1.252 -3.843,1.061 -5.366,0.4199 l -2.148,-1.025 c -1.273,-0.4668 -2.407,-1 -3.329,-1 -0.097,0.002 -0.393,0.002 -0.786,0.4063 -0.18,0.1859 -0.327,0.4098 -0.457,0.6406 0,0.004 10e-4,0.0102 10e-4,0.016 0.029,0.9551 -0.84,2.0192 -0.111,3.6953 1.409,3.2278 1.331,6.5547 -2.169,7.4547 -1.718,0.4434 -1.71,1.5141 -3.362,2.4223 -1.653,0.9059 -2.537,-0.2371 -4.103,-0.3359 -1.568,-0.1043 -2.258,2.1308 -3.771,2.1437 -1.516,0.0121 -3.187,-2.8687 -4.41,-2.4918 -2.656,0.8199 -3.76,0.2289 -4.266,-1.748 -0.502,-1.9801 -0.123,-3.5371 -1.391,-6.2672 -1.219,-2.625 -0.689,-3.2719 -1.419,-7.2188 -0.725,-3.9472 1.325,-5.5492 3.03,-6.3422 1.706,-0.791 5.079,-0.6039 5.079,-0.6039 1.4,0.0418 5.028,-3.166 7.32,-2.9859 2.295,0.1777 5.206,2.2809 7.266,2.8461 1.229,0.3359 2.402,1.7258 3.329,2.9199 0.361,0.2277 0.934,0.525 1.762,0.7668 l 0.735,0.125 c 0.631,0.0652 1.495,0.157 3.569,0.7871 l 2.236,0.5078 c 1.484,0.266 2.884,0.5141 3.441,2.6"
           style="fill:#ffffff;fill-opacity:1;fill-rule:nonzero;stroke:none"
           id="path4332"
           inkscape:connector-curvature="0" /><path
           d="m 668.02229,573.17699 -0.661,-0.625 c -1.14,-0.7441 -3.621,-3.332 -4.413,-4.414 -0.233,-0.3211 -0.665,-0.6371 -1.081,-0.9442 -0.747,-0.55 -1.519,-1.1187 -1.668,-2.0468 l -0.014,-0.093 0.044,-1.6152 0.245,-0.37 c 1.108,-1.7007 2.701,-1.175 4.75,0.1371 1.707,1.0918 2.713,2.4411 3.447,3.4282 0.309,0.4179 0.735,0.9898 0.92,1.0718 1.113,0.311 3.556,2.127 4.025,4.027 0.229,0.932 -0.025,1.8031 -0.714,2.4539 -2.038,1.925 -4.029,-0.1309 -4.88,-1.0098"
           style="fill:#ffffff;fill-opacity:1;fill-rule:nonzero;stroke:none"
           id="path4334"
           inkscape:connector-curvature="0" /></g><g
         id="g4336"><path
           d="m 712.55829,571.80989 c 0.35,-0.5282 0.732,-0.995 1.122,-1.4129 0.47,-0.5051 0.918,-0.9942 1.421,-1.3321 0.536,-0.355 1.146,-0.464 1.679,-0.6148 0.629,-0.1774 1.195,-0.2192 1.757,-0.0844 0.522,0.1231 1.09,0.2332 1.499,0.6473 0.472,0.4777 0.82,1.1597 1.019,1.8937 0.168,0.6391 0.245,1.3832 0.213,2.1371 -0.028,0.6582 -0.25,1.3403 -0.43,2.0371 -0.157,0.6192 -0.289,1.2739 -0.565,1.8848 -0.258,0.5781 -0.525,1.191 -0.888,1.7402 -0.344,0.527 -0.88,0.8848 -1.269,1.3051 -0.471,0.5039 -0.955,0.9141 -1.458,1.25 -0.535,0.3571 -1.03,0.6969 -1.563,0.8508 -0.628,0.1801 -1.261,0.243 -1.826,0.1082 -0.523,-0.125 -1.004,-0.4281 -1.412,-0.8422 -0.47,-0.4808 -0.783,-1.1289 -0.976,-1.8629 -0.17,-0.6371 -0.26,-1.35 -0.226,-2.1039 0.028,-0.6621 0.015,-1.3851 0.194,-2.084 0.158,-0.6113 0.503,-1.2011 0.777,-1.8121 0.259,-0.582 0.581,-1.1511 0.942,-1.7 l 0.033,-0.084 -0.043,0.079"
           style="fill:#ffffff;fill-opacity:1;fill-rule:nonzero;stroke:none"
           id="path4338"
           inkscape:connector-curvature="0" /><path
           d="m 725.08029,571.03169 c 0.214,-0.5918 0.318,-0.7258 0.601,-1.2218 0.344,-0.602 0.706,-1.127 1.117,-1.5668 0.439,-0.4704 0.928,-0.7774 1.411,-1.0473 0.576,-0.3199 1.103,-0.5328 1.683,-0.5328 0.534,0.004 0.982,0.209 1.473,0.516 0.566,0.359 1.018,0.8301 1.378,1.5 0.31,0.582 0.733,1.191 0.875,1.9348 0.121,0.6472 0.106,1.364 0.092,2.0839 -0.013,0.6332 -0.163,1.2782 -0.291,1.934 -0.119,0.6231 -0.112,1.3071 -0.337,1.9242 -0.218,0.5911 -0.688,1.043 -0.971,1.5391 -0.341,0.5988 -0.593,1.2168 -1.006,1.6598 -0.437,0.4691 -0.999,0.709 -1.483,0.9781 -0.571,0.3211 -1.111,0.4461 -1.691,0.4441 -0.536,0 -1.059,-0.016 -1.55,-0.3222 -0.57,-0.3578 -0.957,-0.9438 -1.313,-1.6098 -0.313,-0.584 -0.606,-1.2191 -0.747,-1.9633 -0.124,-0.6476 -0.208,-1.3449 -0.192,-2.0636 0.012,-0.6332 0.074,-1.2891 0.199,-1.9454 0.12,-0.6238 0.058,-0.7777 0.284,-1.3929 l 0.241,-0.4469 c -0.009,-0.006 0.227,-0.4012 0.227,-0.4012"
           style="fill:#ffffff;fill-opacity:1;fill-rule:nonzero;stroke:none"
           id="path4340"
           inkscape:connector-curvature="0" /><path
           d="m 705.13729,560.91299 c 0.569,-0.3379 1.103,-0.7129 1.668,-0.8903 0.593,-0.1839 1.211,-0.0648 1.767,-0.0789 0.65,-0.0211 1.237,0.0121 1.787,0.2129 0.563,0.2051 1.149,0.4012 1.549,0.8211 0.339,0.3551 0.634,0.816 0.822,1.316 0.244,0.645 0.309,1.3911 0.248,2.1153 -0.054,0.6367 -0.303,1.2847 -0.569,1.9297 -0.232,0.566 -0.607,1.0761 -0.981,1.605 -0.37,0.518 -0.718,1.077 -1.205,1.5243 -0.444,0.3976 -0.979,0.7007 -1.51,1.0128 -0.568,0.336 -1.107,0.6719 -1.672,0.8461 -0.594,0.1899 -1.19,0.1387 -1.748,0.1539 -0.646,0.018 -1.289,0.1411 -1.841,-0.0582 -0.561,-0.2027 -1.023,-0.625 -1.427,-1.0468 -0.336,-0.3551 -0.659,-0.7602 -0.846,-1.2578 -0.241,-0.6461 -0.367,-1.3813 -0.304,-2.1051 0.054,-0.6391 0.345,-1.2762 0.609,-1.9199 0.234,-0.5692 0.573,-1.0961 0.949,-1.625 0.369,-0.518 0.742,-1.0512 1.23,-1.4961 0.441,-0.4032 0.891,-0.8403 1.421,-1.1532 l 0.066,0.0629 c 0.003,0.008 -0.013,0.0313 -0.013,0.0313"
           style="fill:#ffffff;fill-opacity:1;fill-rule:nonzero;stroke:none"
           id="path4342"
           inkscape:connector-curvature="0" /><path
           d="m 705.11829,547.97589 c 0.769,-0.0629 1.536,0.023 2.213,0.2129 0.704,0.1972 1.278,0.63 1.813,1.041 0.548,0.4172 1.11,0.8472 1.412,1.4332 0.258,0.5078 0.231,1.1109 0.256,1.709 0.029,0.705 -0.115,1.3379 -0.417,1.9648 -0.291,0.6133 -0.583,1.268 -1.125,1.7402 -0.518,0.4547 -1.153,0.8809 -1.84,1.145 -0.58,0.2218 -1.243,0.3418 -1.902,0.3918 -0.769,0.0589 -1.507,-0.1188 -2.182,-0.3079 -0.705,-0.196 -1.344,-0.489 -1.878,-0.8992 -0.547,-0.4199 -0.904,-0.9718 -1.203,-1.5617 -0.262,-0.5082 -0.404,-1.0281 -0.427,-1.6269 -0.031,-0.7032 -0.073,-1.4282 0.224,-2.0532 0.293,-0.6109 0.885,-1.0511 1.424,-1.525 0.523,-0.457 1.094,-0.866 1.786,-1.1332 0.58,-0.2207 1.19,-0.4449 1.849,-0.4957 l -0.053,0.041 c -0.004,-0.0351 0.05,-0.0761 0.05,-0.0761"
           style="fill:#ffffff;fill-opacity:1;fill-rule:nonzero;stroke:none"
           id="path4344"
           inkscape:connector-curvature="0" /><path
           d="m 734.60729,548.93489 c 0.544,0.38 0.937,0.789 1.324,1.3589 0.355,0.5289 0.685,1.07 0.857,1.7871 0.138,0.5961 0.243,1.2231 0.227,1.9649 -0.015,0.6109 -0.12,1.248 -0.259,1.9672 -0.103,0.5269 -0.092,1.1109 -0.269,1.6988 -0.28,0.9652 -0.214,0.7691 -0.806,1.834 -0.288,0.516 -0.673,1.098 -1.148,1.7051 -0.375,0.4711 -0.723,1.0531 -1.229,1.523 -0.479,0.4442 -1.153,0.711 -1.764,1.1141 -0.528,0.3418 -1.013,0.8379 -1.648,1.1211 -0.54,0.2398 -1.236,0.1226 -1.864,0.3027 -0.495,0.1422 -1.011,0.25 -1.56,0.341 -1.048,0.241 -0.797,0.5281 -2.049,0.6981 -0.595,0.08 -1.292,-0.0371 -2.01,-0.016 -0.705,0.0199 -1.466,0.3281 -2.195,0.232 -0.659,-0.086 -1.951,-0.486 -1.951,-0.486 -0.576,-0.2152 -1.087,-0.6332 -1.555,-1.0082 l 0.061,-0.002 c -0.017,0.0141 -0.063,-0.0188 -0.063,-0.0188 -0.567,-0.914 -0.493,-0.6761 -1.084,-1.8711 -0.268,-0.5449 -0.455,-1.248 -0.76,-1.9871 -0.251,-0.5968 -0.39,-1.291 -0.636,-1.9961 -0.232,-0.6828 -0.485,-1.3898 -0.683,-2.15 -0.179,-0.6859 -0.187,-1.4097 -0.311,-2.1367 -0.129,-0.7211 -0.409,-1.084 -0.463,-1.832 -0.052,-0.6699 0.074,-1.6742 0.095,-2.359 0.022,-0.6781 -0.013,-1.348 0.089,-2.0262 0.104,-0.673 -0.026,-1.4078 0.169,-2.0718 0.192,-0.6539 0.358,-1.361 0.654,-2 0.287,-0.625 0.781,-1.1852 1.176,-1.7871 0.31,-0.4692 0.831,-0.77 1.214,-1.2192 0.836,-0.7457 0.797,-0.5308 1.977,-0.8527 1.748,-0.291 2.618,-0.0332 4.33,1.1929 2.17,1.559 1.462,2.102 2.067,3.4649 0.601,1.3633 0.284,1.2769 0.747,1.9242 0.459,0.6438 0.945,0.2598 1.902,0.125 0.953,-0.1391 1.887,-0.1332 3.085,-0.0551 1.198,0.0739 2.164,0.4489 3.25,0.984 1.083,0.536 1.083,0.536 1.083,0.536"
           style="fill:#ffffff;fill-opacity:1;fill-rule:nonzero;stroke:none"
           id="path4346"
           inkscape:connector-curvature="0" /></g></g></g></svg>