<?xml version="1.0" encoding="UTF-8" standalone="no"?><!DOCTYPE svg PUBLIC "-//W3C//DTD SVG 1.1//EN" "http://www.w3.org/Graphics/SVG/1.1/DTD/svg11.dtd"><svg width="100%" height="100%" viewBox="0 0 100 100" version="1.1" xmlns="http://www.w3.org/2000/svg" xmlns:xlink="http://www.w3.org/1999/xlink" xml:space="preserve" xmlns:serif="http://www.serif.com/" style="fill-rule:evenodd;clip-rule:evenodd;stroke-linejoin:round;stroke-miterlimit:2;"><g id="GPfote"><path id="GPfoteRand" d="M50.001,-0c-27.609,-0 -49.998,22.38 -49.998,49.996c0,27.611 22.389,49.996 49.998,49.996c27.615,-0 49.999,-22.385 49.999,-49.996c-0,-27.616 -22.384,-49.996 -49.999,-49.996Zm0,6.252c24.159,-0 43.745,19.579 43.745,43.744c-0,24.158 -19.586,43.747 -43.745,43.747c-24.158,-0 -43.749,-19.589 -43.749,-43.747c0,-24.165 19.591,-43.744 43.749,-43.744Z" style="fill:rgb(100,99,99);fill-rule:nonzero;"/><path id="GPfoteNegativ" d="M93.747,49.997c-0,24.159 -19.588,43.746 -43.746,43.746c-24.158,0 -43.749,-19.587 -43.749,-43.746c-0,-24.165 19.591,-43.746 43.749,-43.746c24.158,0 43.746,19.581 43.746,43.746Z" style="fill:rgb(50,154,54);fill-rule:nonzero;"/><path d="M60.589,41.769c4.333,1.675 8.395,4.319 11.844,7.922c5.779,6.038 8.792,13.688 9.061,21.319l-0,0.002c0.029,0.847 -0.287,1.669 -0.875,2.278c-0.586,0.606 -1.392,0.951 -2.234,0.954l-0.014,0.015c-1.07,-0 -2.015,-0.54 -2.579,-1.361c-0.279,-0.379 -0.481,-0.865 -0.534,-1.485c-0.005,-0.061 -0.009,-0.122 -0.011,-0.184l0,-0.002c-0.217,-6.163 -2.662,-12.338 -7.329,-17.215c-9.815,-10.254 -25.825,-10.955 -35.735,-1.47c-5.121,4.901 -7.596,11.561 -7.436,18.257l0.001,0.052l0.005,0.18c0.057,1.724 -1.296,3.169 -3.02,3.226c-1.724,0.057 -3.169,-1.297 -3.226,-3.021l-0.007,-0.224l-0.001,-0.062c-0.201,-8.411 2.93,-16.767 9.363,-22.924c3.248,-3.108 7.021,-5.351 11.042,-6.736c-0.098,-0.098 -0.195,-0.196 -0.292,-0.297c-6.014,-6.284 -5.795,-16.27 0.489,-22.285c6.285,-6.014 16.27,-5.795 22.285,0.489c6.015,6.285 5.796,16.27 -0.489,22.285c-0.101,0.098 -0.204,0.193 -0.308,0.287Zm17.766,32.474c-0.163,-0.015 -1.569,-0.177 -2.434,-1.183c0.571,0.719 1.451,1.18 2.435,1.184l-0.001,-0.001Zm-21.779,-37.276c3.792,-3.63 3.925,-9.656 0.295,-13.448c-3.63,-3.793 -9.656,-3.925 -13.448,-0.295c-3.793,3.629 -3.925,9.655 -0.295,13.448c3.629,3.792 9.655,3.925 13.448,0.295Z" style="fill:white;"/></g></svg>