<?xml version="1.0" encoding="UTF-8" standalone="no"?>
<svg
   xmlns:osb="http://www.openswatchbook.org/uri/2009/osb"
   xmlns:dc="http://purl.org/dc/elements/1.1/"
   xmlns:cc="http://creativecommons.org/ns#"
   xmlns:rdf="http://www.w3.org/1999/02/22-rdf-syntax-ns#"
   xmlns:svg="http://www.w3.org/2000/svg"
   xmlns="http://www.w3.org/2000/svg"
   id="svg853"
   version="1.1"
   viewBox="0 0 16 16">
  <metadata
     id="metadata859">
    <rdf:RDF>
      <cc:Work
         rdf:about="">
        <dc:format>image/svg+xml</dc:format>
        <dc:type
           rdf:resource="http://purl.org/dc/dcmitype/StillImage" />
        <dc:title></dc:title>
      </cc:Work>
    </rdf:RDF>
  </metadata>
  <defs
     id="defs857">
    <linearGradient
       osb:paint="solid"
       id="linearGradient2805">
      <stop
         id="stop2803"
         offset="0"
         style="stop-color:#ffffff;stop-opacity:1;" />
    </linearGradient>
  </defs>
  <path
     id="path833"
     d="M1 1h14v14H1z"
     fill="#FFF" />
  <path
     id="path835"
     d="M14 2v12H2V2h12m1-1H1v14h14V1z"
     fill="#999" />
  <g
     transform="translate(0,1.4740369)"
     style="fill-opacity:1"
     id="g845">
    <path
       style="fill-opacity:1"
       id="path837"
       d="M 3,3 H 9 V 9 H 3 Z"
       fill="#5599ff" />
    <path
       style="fill-opacity:1"
       id="path839"
       d="M 7,8 H 4 L 4.75,7 5.5,6 6.25,7 Z"
       fill="#ffffff" />
    <path
       style="fill-opacity:1"
       id="path841"
       d="M 8,8 H 5.333 L 6,7.333 6.667,6.667 7.333,7.333 Z"
       fill="#ffffff" />
    <circle
       style="fill-opacity:1"
       id="circle843"
       r="0.5"
       cy="5.5"
       cx="7.5"
       fill="#ffffff" />
  </g>
  <g
     id="g851">
    <path
       id="path847"
       d="M10 5h3v1h-3zM10 7h3v1h-3zM10 9h3v1h-3zM10 11h3v1h-3z"
       fill="#B9B9B9" />
    <path
       id="path849"
       d="M10 3h3v1h-3z"
       fill="#666" />
  </g>
</svg>
