<?xml version="1.0" encoding="UTF-8" standalone="no"?>
<svg
   xmlns:dc="http://purl.org/dc/elements/1.1/"
   xmlns:cc="http://creativecommons.org/ns#"
   xmlns:rdf="http://www.w3.org/1999/02/22-rdf-syntax-ns#"
   xmlns:svg="http://www.w3.org/2000/svg"
   xmlns="http://www.w3.org/2000/svg"
   id="svg853"
   version="1.1"
   viewBox="0 0 16 16">
  <metadata
     id="metadata859">
    <rdf:RDF>
      <cc:Work
         rdf:about="">
        <dc:format>image/svg+xml</dc:format>
        <dc:type
           rdf:resource="http://purl.org/dc/dcmitype/StillImage" />
        <dc:title></dc:title>
      </cc:Work>
    </rdf:RDF>
  </metadata>
  <defs
     id="defs857" />
  <path
     id="path833"
     d="M1 1h14v14H1z"
     fill="#FFF" />
  <path
     id="path835"
     d="M14 2v12H2V2h12m1-1H1v14h14V1z"
     fill="#999" />
  <g
     transform="translate(0.05360134,3.9932998)"
     id="g845">
    <path
       id="path837"
       d="m 7,3 h 6 V 9 H 7 Z"
       fill="#5599ff" />
    <path
       id="path839"
       d="M 11,8 H 8 L 8.75,7 9.5,6 10.25,7 Z"
       fill="#ffffff" />
    <path
       id="path841"
       d="M 12,8 H 9.333 L 10,7.333 10.667,6.667 11.333,7.333 Z"
       fill="#ffffff" />
    <circle
       id="circle843"
       r="0.5"
       cy="5.5"
       cx="11.5"
       fill="#ffffff" />
  </g>
  <g
     id="g851">
    <path
       id="path847"
       d="M3 5h3v1H3zM3 7h3v1H3zM3 9h3v1H3zM3 11h3v1H3z"
       fill="#B9B9B9" />
    <path
       id="path849"
       d="M3 3h3v1H3z"
       fill="#666" />
  </g>
</svg>
